<svg width="1200" height="950" viewBox="0 0 1200 950" fill="none" xmlns="http://www.w3.org/2000/svg">
<path fill-rule="evenodd" clip-rule="evenodd" d="M1200 300V181V60V40C1200 17.9086 1182.09 0 1160 0H1140H810H790C767.909 0 750 17.9086 750 40V60V181V240C750 273.137 723.137 300 690 300H493.5H395C383.954 300 375 308.954 375 320V403C375 403.774 375.044 404.538 375.13 405.29V540C375.13 573.137 348.267 600 315.13 600H209H130H40C17.9086 600 0 617.909 0 640V910C0 932.091 17.9086 950 40 950H130H209H843H860H1160C1182.09 950 1200 932.091 1200 910V618V552V382.043C1200 377.987 1199.4 374.073 1198.27 370.384C1199.4 366.695 1200 362.78 1200 358.725L1200 339L1200 309.725L1200 309.626V300Z" fill="#591823"/>
</svg>
