<?xml version="1.0" encoding="UTF-8"?>
<svg id="Layer_2" data-name="Layer 2" xmlns="http://www.w3.org/2000/svg" viewBox="0 0 1765.04 268.89">
  <defs>
    <style>
      .cls-1 {
        fill: #fff;
        stroke-width: 0px;
      }
    </style>
  </defs>
  <g id="Layer_1-2" data-name="Layer 1">
    <g>
      <path class="cls-1" d="M0,213.17V0h38.07l93.49,145.87c7.61,11.88,13.7,23.75,18.27,33.5h1.22c-.91-10.66-1.52-23.45-1.52-38.67V0h29.54v213.17h-38.07L47.2,68.52c-7.61-11.88-13.7-23.75-17.97-33.8h-1.22c.91,10.35,1.52,23.14,1.52,38.07v140.38H0Z"/>
      <path class="cls-1" d="M360.56,137.04h-127.59c2.44,35.32,22.53,56.64,51.16,56.64,22.84,0,41.11-12.79,43.85-31.37h29.54c-3.35,34.41-35.93,54.51-73.39,54.51-48.42,0-81.31-33.8-81.31-87.4,0-49.64,30.45-87.4,80.7-87.4s77.04,37.76,77.04,89.53v5.48ZM233.57,114.5h95.92c-2.13-32.28-20.71-49.33-45.98-49.33s-45.37,18.27-49.94,49.33Z"/>
      <path class="cls-1" d="M460.14,68.82h-37.15v97.75c0,19.18,7.92,25.88,20.71,25.88,5.48,0,11.27-1.22,16.44-3.66v23.75c-5.18,1.83-11.88,3.35-20.71,3.35-27.1,0-45.68-14.01-45.68-46.59v-100.49h-23.75v-23.14h23.75V0h29.23v45.68h37.15v23.14Z"/>
      <path class="cls-1" d="M472.02,129.42c0-51.46,32.58-87.4,82.22-87.4,42.33,0,72.17,26.19,75.22,66.39h-30.45c-3.35-22.84-15.84-43.24-44.46-43.24-32.28,0-52.07,25.88-52.07,64.25s20.1,64.25,51.46,64.25c25.28,0,42.94-16.75,45.68-45.07h30.45c-3.05,42.02-34.11,68.21-76.43,68.21-48.42,0-81.61-35.93-81.61-87.4Z"/>
      <path class="cls-1" d="M647.73,128.81c0-51.16,31.98-86.79,81.61-86.79s81.61,35.63,81.61,86.79-31.97,88.01-81.61,88.01-81.61-35.93-81.61-88.01ZM780.5,128.81c0-38.07-20.1-63.65-51.16-63.65s-51.16,25.58-51.16,63.65,20.1,64.86,51.16,64.86,51.16-26.49,51.16-64.86Z"/>
      <path class="cls-1" d="M1073.76,98.36v114.8h-29.23v-111.76c0-20.71-13.4-35.63-34.11-35.63-25.58,0-42.94,22.53-42.94,61.82v85.57h-29.23v-111.76c0-20.71-13.7-35.63-33.8-35.63-26.19,0-43.24,25.28-43.24,61.82v85.57h-29.23V45.68h28.32v38.37h.91c4.87-27.71,28.32-42.02,52.07-42.02,24.97,0,46.9,15.53,52.68,41.72h.61c7.31-29.84,29.84-41.72,52.68-41.72,30.45,0,54.51,21.62,54.51,56.34Z"/>
      <path class="cls-1" d="M1259.52,128.51c0,51.46-31.67,88.01-72.17,88.01-24.67,0-48.42-13.7-56.34-41.11h-.91v93.49h-29.23V45.68h29.23v38.37h.3c7.61-26.8,31.06-42.02,57.86-42.02,41.42,0,71.26,35.02,71.26,86.48ZM1229.07,128.51c0-38.07-20.4-63.65-48.72-63.65-30.45,0-50.55,29.23-50.55,64.25s20.4,64.25,50.25,64.25,49.03-26.49,49.03-64.86Z"/>
      <path class="cls-1" d="M1439.5,190.02v21.93c-6.4,2.13-12.79,3.35-19.79,3.35-23.75,0-34.11-13.7-34.11-34.11v-5.79h-1.22c-7.01,25.58-28.93,41.41-58.16,41.41s-51.77-13.7-51.77-45.07c0-38.67,35.93-43.85,68.52-49.64,25.88-4.57,41.72-10.05,41.72-29.84,0-15.53-9.75-27.71-36.85-27.71-25.58,0-40.2,11.27-40.2,36.54h-29.24c.61-37.46,25.58-59.08,69.43-59.08s65.47,20.4,65.47,56.95v76.13c0,15.23,7.61,17.97,14.01,17.97,4.26,0,8.53-1.22,12.18-3.05ZM1384.69,137.34v-7.92c-10.36,7.61-23.75,11.27-35.33,13.7-23.14,4.87-45.07,7.31-45.07,27.71,0,16.14,13.7,22.84,30.76,22.84,31.97,0,49.64-22.84,49.64-56.34Z"/>
      <path class="cls-1" d="M1594.2,99.88v113.28h-29.23v-107.8c0-25.88-14.31-39.59-35.63-39.59-26.8,0-45.98,21.62-45.98,60.6v86.79h-29.23V45.68h28.32v38.37h.91c4.87-27.1,28.02-42.02,53.9-42.02,33.19,0,56.95,23.14,56.95,57.86Z"/>
      <path class="cls-1" d="M1734.89,45.68h30.15l-60.3,161.4c-8.83,23.45-29.84,61.82-69.43,61.82-10.66,0-17.36-2.74-20.4-4.26v-24.06c3.96,2.13,10.96,4.87,19.79,4.87,19.18,0,31.67-13.4,38.06-29.54l-67.6-170.23h32.28l40.2,110.85c3.05,7.92,6.4,17.05,8.53,28.62h.91c2.44-11.27,5.79-20.4,8.83-28.62l38.98-110.85Z"/>
    </g>
  </g>
</svg>