<?xml version="1.0" encoding="UTF-8"?>
<svg id="Layer_2" data-name="Layer 2" xmlns="http://www.w3.org/2000/svg" viewBox="0 0 653.97 99.63">
  <defs>
    <style>
      .cls-1 {
        fill: #022;
        stroke-width: 0px;
      }
    </style>
  </defs>
  <g id="Layer_1-2" data-name="Layer 1">
    <g>
      <path class="cls-1" d="M0,78.98V0h14.1l34.64,54.05c2.82,4.4,5.08,8.8,6.77,12.41h.45c-.34-3.95-.56-8.69-.56-14.33V0h10.94v78.98h-14.1L17.49,25.39c-2.82-4.4-5.08-8.8-6.66-12.52h-.45c.34,3.84.56,8.57.56,14.1v52.01H0Z"/>
      <path class="cls-1" d="M133.59,50.77h-47.28c.9,13.09,8.35,20.99,18.96,20.99,8.46,0,15.23-4.74,16.25-11.62h10.94c-1.24,12.75-13.31,20.2-27.19,20.2-17.94,0-30.13-12.52-30.13-32.38,0-18.39,11.28-32.38,29.9-32.38s28.55,13.99,28.55,33.17v2.03ZM86.54,42.42h35.54c-.79-11.96-7.67-18.28-17.04-18.28s-16.81,6.77-18.5,18.28Z"/>
      <path class="cls-1" d="M170.49,25.5h-13.77v36.22c0,7.11,2.93,9.59,7.67,9.59,2.03,0,4.17-.45,6.09-1.35v8.8c-1.92.68-4.4,1.24-7.67,1.24-10.04,0-16.92-5.19-16.92-17.26V25.5h-8.8v-8.58h8.8V0h10.83v16.92h13.77v8.58Z"/>
      <path class="cls-1" d="M174.89,47.95c0-19.07,12.07-32.38,30.46-32.38,15.68,0,26.74,9.7,27.87,24.6h-11.28c-1.24-8.46-5.87-16.02-16.47-16.02-11.96,0-19.29,9.59-19.29,23.81s7.45,23.81,19.07,23.81c9.36,0,15.91-6.21,16.92-16.7h11.28c-1.13,15.57-12.64,25.27-28.32,25.27-17.94,0-30.24-13.31-30.24-32.38Z"/>
      <path class="cls-1" d="M239.99,47.73c0-18.96,11.85-32.16,30.24-32.16s30.24,13.2,30.24,32.16-11.85,32.61-30.24,32.61-30.24-13.31-30.24-32.61ZM289.19,47.73c0-14.1-7.45-23.58-18.96-23.58s-18.96,9.48-18.96,23.58,7.45,24.03,18.96,24.03,18.96-9.82,18.96-24.03Z"/>
      <path class="cls-1" d="M397.84,36.44v42.54h-10.83v-41.41c0-7.67-4.96-13.2-12.64-13.2-9.48,0-15.91,8.35-15.91,22.9v31.7h-10.83v-41.41c0-7.67-5.08-13.2-12.52-13.2-9.7,0-16.02,9.36-16.02,22.9v31.7h-10.83V16.92h10.49v14.22h.34c1.81-10.27,10.49-15.57,19.29-15.57,9.25,0,17.38,5.75,19.52,15.46h.23c2.71-11.06,11.06-15.46,19.52-15.46,11.28,0,20.2,8.01,20.2,20.87Z"/>
      <path class="cls-1" d="M466.67,47.61c0,19.07-11.73,32.61-26.74,32.61-9.14,0-17.94-5.08-20.87-15.23h-.34v34.64h-10.83V16.92h10.83v14.22h.11c2.82-9.93,11.51-15.57,21.44-15.57,15.35,0,26.4,12.98,26.4,32.04ZM455.39,47.61c0-14.1-7.56-23.58-18.05-23.58-11.28,0-18.73,10.83-18.73,23.81s7.56,23.81,18.62,23.81,18.17-9.82,18.17-24.03Z"/>
      <path class="cls-1" d="M533.35,70.41v8.12c-2.37.79-4.74,1.24-7.33,1.24-8.8,0-12.64-5.08-12.64-12.64v-2.14h-.45c-2.6,9.48-10.72,15.34-21.55,15.34s-19.18-5.08-19.18-16.7c0-14.33,13.31-16.25,25.39-18.39,9.59-1.69,15.46-3.72,15.46-11.06,0-5.75-3.61-10.27-13.65-10.27-9.48,0-14.89,4.17-14.89,13.54h-10.83c.23-13.88,9.48-21.89,25.73-21.89s24.26,7.56,24.26,21.1v28.21c0,5.64,2.82,6.66,5.19,6.66,1.58,0,3.16-.45,4.51-1.13ZM513.04,50.89v-2.93c-3.84,2.82-8.8,4.17-13.09,5.08-8.57,1.81-16.7,2.71-16.7,10.27,0,5.98,5.08,8.46,11.4,8.46,11.85,0,18.39-8.46,18.39-20.87Z"/>
      <path class="cls-1" d="M590.67,37.01v41.97h-10.83v-39.94c0-9.59-5.3-14.67-13.2-14.67-9.93,0-17.04,8.01-17.04,22.45v32.16h-10.83V16.92h10.49v14.22h.34c1.81-10.04,10.38-15.57,19.97-15.57,12.3,0,21.1,8.57,21.1,21.44Z"/>
      <path class="cls-1" d="M642.8,16.92h11.17l-22.34,59.8c-3.27,8.69-11.06,22.9-25.73,22.9-3.95,0-6.43-1.02-7.56-1.58v-8.91c1.47.79,4.06,1.81,7.33,1.81,7.11,0,11.73-4.96,14.1-10.94l-25.05-63.07h11.96l14.89,41.07c1.13,2.93,2.37,6.32,3.16,10.61h.34c.9-4.17,2.14-7.56,3.27-10.61l14.44-41.07Z"/>
    </g>
  </g>
</svg>