<?xml version="1.0" encoding="UTF-8"?>
<svg id="Layer_2" data-name="Layer 2" xmlns="http://www.w3.org/2000/svg" viewBox="0 0 140.25 91.3">
  <defs>
    <style>
      .cls-1 {
        opacity: .6;
      }

      .cls-2 {
        fill: none;
        stroke: #fff;
        stroke-linecap: round;
        stroke-miterlimit: 10;
        stroke-width: .26px;
      }

      .cls-3 {
        fill: #fff;
        stroke-width: 0px;
      }
    </style>
  </defs>
  <g id="White">
    <g>
      <g>
        <g class="cls-1">
          <path class="cls-3" d="M29.64,84.87c-2.03.83-3.95.92-5.87.75-6.8-.62-12.4-3.54-16.35-9.16-2.25-3.2-4.11-6.67-6.1-10.04-.24-.4-.41-1.04-.27-1.45,1.84-4.98,3.75-9.93,7.46-13.9.2-.22.43-.42.74-.71.74.67,1.45,1.33,2.18,1.98,2.68,2.39,5.44,4.64,8.82,6,.35.14.66.75.72,1.17.41,3.38.74,6.77,1.13,10.15.66,5.64,3.03,10.46,6.95,14.55.14.15.28.31.59.65Z"/>
          <path class="cls-3" d="M43.52,34.36c1.58-.07,3.29-.16,5-.23,1.02-.04,1.52.43,1.42,1.48-.29,3.13-.48,6.26-.88,9.37-.59,4.65-1.12,9.32-2.03,13.9-1.45,7.24-3.55,14.29-7.63,20.57-1.09,1.68-2.18,3.45-4.09,4.35-.54.25-1.38.37-1.88.12-3.82-1.83-6.13-5.03-7.59-8.89-.09-.24.11-.74.33-.92,8.82-6.95,12.71-16.66,15.09-27.17.93-4.1,1.5-8.28,2.26-12.59Z"/>
          <path class="cls-3" d="M42.46,31.74c-1.4-4.19-2.81-8.38-4.19-12.57-.25-.77.07-1.25.82-1.63,6.19-3.15,12.34-2.68,18.52.03.7.31.76.77.49,1.34-1.39,2.91-2.75,5.83-4.22,8.69-.65,1.25-1.51,2.4-2.33,3.56-.2.28-.69.64-.9.56-2.62-.95-5.25-.38-8.18,0Z"/>
        </g>
        <g>
          <path class="cls-3" d="M28.64,83.87c-2.03.83-3.95.92-5.87.75-6.8-.62-12.4-3.54-16.35-9.16-2.25-3.2-4.11-6.67-6.1-10.04-.24-.4-.41-1.04-.27-1.45,1.84-4.98,3.75-9.93,7.46-13.9.2-.22.43-.42.74-.71.74.67,1.45,1.33,2.18,1.98,2.68,2.39,5.44,4.64,8.82,6,.35.14.66.75.72,1.17.41,3.38.74,6.77,1.13,10.15.66,5.64,3.03,10.46,6.95,14.55.14.15.28.31.59.65Z"/>
          <path class="cls-3" d="M42.52,33.36c1.58-.07,3.29-.16,5-.23,1.02-.04,1.52.43,1.42,1.48-.29,3.13-.48,6.26-.88,9.37-.59,4.65-1.12,9.32-2.03,13.9-1.45,7.24-3.55,14.29-7.63,20.57-1.09,1.68-2.18,3.45-4.09,4.35-.54.25-1.38.37-1.88.12-3.82-1.83-6.13-5.03-7.59-8.89-.09-.24.11-.74.33-.92,8.82-6.95,12.71-16.66,15.09-27.17.93-4.1,1.5-8.28,2.26-12.59Z"/>
          <path class="cls-3" d="M41.46,30.74c-1.4-4.19-2.81-8.38-4.19-12.57-.25-.77.07-1.25.82-1.63,6.19-3.15,12.34-2.68,18.52.03.7.31.76.77.49,1.34-1.39,2.91-2.75,5.83-4.22,8.69-.65,1.25-1.51,2.4-2.33,3.56-.2.28-.69.64-.9.56-2.62-.95-5.25-.38-8.18,0Z"/>
        </g>
      </g>
      <g>
        <path class="cls-3" d="M52.84,46.73c0-.57.07-1.11.22-1.64.14-.52.35-1.01.62-1.47.27-.46.59-.88.96-1.25.37-.38.79-.7,1.24-.96.46-.27.95-.47,1.47-.62.52-.15,1.07-.22,1.64-.22s1.11.07,1.63.22,1.02.35,1.47.62c.46.27.87.59,1.25.96.38.38.7.79.96,1.25.27.46.47.95.62,1.47.15.52.22,1.07.22,1.64s-.07,1.11-.22,1.64-.35,1.01-.62,1.46c-.27.45-.59.87-.96,1.24-.38.37-.79.69-1.25.96-.46.27-.95.47-1.47.62s-1.07.22-1.63.22-1.11-.07-1.64-.22c-.52-.14-1.01-.35-1.47-.62-.46-.27-.87-.59-1.24-.96-.37-.37-.69-.79-.96-1.24-.27-.45-.47-.94-.62-1.46s-.22-1.07-.22-1.64ZM55.95,46.72c0,.44.07.86.22,1.25.15.39.36.72.63,1.01.27.29.59.51.96.67.37.16.78.25,1.22.25s.85-.08,1.22-.25c.37-.16.69-.39.96-.67.27-.29.48-.62.63-1.01.15-.39.23-.8.23-1.25s-.08-.85-.23-1.24c-.15-.39-.36-.73-.63-1.02s-.59-.52-.96-.68c-.37-.17-.78-.25-1.22-.25s-.85.08-1.22.25c-.37.17-.69.39-.96.68-.27.29-.48.63-.63,1.02-.15.39-.22.8-.22,1.24Z"/>
        <path class="cls-3" d="M67.42,41.12c0-.11.03-.2.09-.27.06-.07.15-.1.26-.1h5.34c.47,0,.92.09,1.33.27.42.18.78.43,1.1.74s.56.68.74,1.1c.18.42.27.87.27,1.35,0,.4-.06.78-.19,1.12s-.3.66-.54.93c.39.35.69.77.92,1.26.22.49.34,1,.34,1.55,0,.49-.09.95-.28,1.39-.19.44-.44.82-.76,1.15-.32.33-.69.59-1.12.78-.43.19-.88.29-1.35.29h-5.81c-.11,0-.19-.03-.26-.08-.06-.06-.1-.14-.1-.26v-11.22ZM73.47,44.28c0-.16-.03-.31-.09-.45-.06-.14-.14-.26-.25-.37-.11-.11-.24-.19-.39-.25-.15-.06-.31-.09-.49-.09h-1.72v2.33h1.7c.18,0,.35-.03.5-.08s.28-.14.39-.24.19-.23.25-.37.09-.3.09-.47ZM73.9,48.96c0-.16-.03-.32-.09-.48s-.15-.3-.26-.43-.24-.23-.39-.31c-.15-.08-.32-.12-.5-.12h-2.13v2.69h2.13c.18,0,.34-.04.49-.11.15-.08.28-.18.39-.3.11-.13.2-.27.26-.43.06-.16.09-.33.09-.5Z"/>
        <path class="cls-3" d="M79.15,41.12c0-.11.03-.2.09-.27.06-.06.13-.1.22-.1h7.69c.12,0,.22.03.28.1s.09.16.09.28v1.99c0,.09-.03.18-.1.26s-.16.12-.28.12h-4.89v2.49h3.61c.1,0,.19.03.26.08.07.06.1.15.1.27v1.92c0,.09-.03.18-.09.26s-.15.12-.25.12h-3.63v3.68c0,.23-.12.35-.37.35h-2.45c-.19-.03-.29-.14-.29-.34v-11.23Z"/>
        <path class="cls-3" d="M92,41.06s.02-.07.05-.1.07-.07.11-.1.09-.06.14-.08c.05-.02.09-.03.14-.03h2.06c.09,0,.17.03.23.08.06.06.11.11.15.15l.2.46,4.22,10.89c.04.11.03.19-.02.26-.06.07-.16.1-.31.1h-2.31c-.12,0-.22-.02-.29-.07-.07-.05-.12-.12-.16-.23-.11-.27-.21-.54-.31-.82s-.2-.54-.31-.82h-4.27c-.1.27-.21.55-.31.82s-.21.54-.31.82c-.07.2-.21.3-.41.3h-2.37c-.1,0-.19-.03-.25-.08s-.08-.13-.04-.24l4.37-11.3ZM93.46,44.5c-.1.27-.21.57-.31.88-.1.32-.21.64-.31.96-.1.32-.21.64-.31.95s-.21.61-.31.88h2.47l-1.23-3.67Z"/>
        <path class="cls-3" d="M101.24,41.1c0-.1.03-.18.09-.25.06-.07.15-.1.27-.1h2.36c.08,0,.17.03.26.1.09.06.14.15.14.26v11.23c0,.24-.13.35-.39.35h-2.36c-.24,0-.35-.12-.35-.35v-11.23Z"/>
        <path class="cls-3" d="M107.28,41.12c0-.11.03-.2.09-.27.06-.07.15-.1.26-.1h5.19c.55,0,1.07.1,1.55.31.48.21.9.49,1.26.84.36.35.64.77.85,1.24.21.47.31.98.31,1.52,0,.36-.05.71-.15,1.04-.1.33-.24.64-.41.92s-.39.55-.63.78c-.24.23-.51.43-.8.6l2.07,3.89c.04.08.08.16.14.27.06.1.09.19.09.26,0,.09-.03.15-.08.2s-.13.07-.23.07h-2.76c-.09,0-.17-.03-.25-.08s-.12-.13-.14-.22l-1.95-3.67h-1.3v3.63c0,.23-.12.35-.37.35h-2.39c-.11,0-.19-.03-.26-.08-.06-.06-.1-.14-.1-.26v-11.22ZM113.58,44.69c0-.16-.03-.32-.09-.48-.06-.16-.14-.31-.25-.44-.11-.13-.24-.25-.39-.34-.15-.09-.32-.15-.5-.18-.15-.01-.29-.02-.42-.03-.13,0-.28-.01-.43-.01h-1.11v2.95h1.48c.1,0,.18,0,.26,0s.16-.01.25-.02c.19-.02.36-.08.51-.16.15-.09.28-.2.38-.33.1-.13.18-.28.23-.44s.08-.33.08-.5Z"/>
      </g>
      <g>
        <path class="cls-3" d="M91.85,38.68s-.05-.01-.05-.04c0-.01,0-.03.02-.05h0s0-.04.01-.05.01-.03.02-.04l1.5-2.13c-.13-.19-.26-.37-.37-.54-.12-.17-.23-.33-.34-.49-.11-.16-.22-.31-.32-.46-.11-.15-.22-.31-.33-.48-.02-.03-.04-.05-.05-.08-.01-.03-.02-.05-.02-.07,0-.03.01-.05.04-.07s.07-.03.13-.03h.66c.07,0,.13,0,.17.02s.08.03.11.05.06.06.08.09c.03.04.06.08.09.14.13.2.26.39.38.59.12.2.25.4.37.59.07-.09.13-.2.2-.31s.14-.23.21-.34c.07-.12.14-.23.21-.34.07-.11.14-.22.2-.31.04-.06.08-.11.11-.13.03-.02.08-.04.13-.04h.8s.08,0,.11.02c.03.02.04.04.04.07,0,.03-.01.06-.05.12-.12.17-.23.33-.34.48-.11.16-.22.31-.33.47s-.23.32-.34.49-.24.35-.38.54c.25.35.49.7.74,1.05s.49.7.74,1.05c.02.03.04.06.05.09.01.03.02.06.02.08,0,.03-.01.05-.04.07-.02.02-.07.03-.13.03h-.85c-.05,0-.1-.01-.13-.04-.03-.03-.07-.07-.1-.12l-.09-.15c-.13-.22-.27-.44-.4-.65-.13-.22-.26-.43-.4-.65l-.8,1.31c-.05.08-.1.15-.15.21-.03.03-.06.05-.1.06s-.08.02-.12.02c-.04,0-.09,0-.13,0-.04,0-.08,0-.13,0h-.58s-.06-.02-.07-.05Z"/>
        <path class="cls-3" d="M101.32,38.52s0,.08-.03.11c-.02.03-.04.05-.07.06-.03.02-.06.03-.1.03-.04,0-.08,0-.12,0h-.45c-.08,0-.13-.02-.16-.06-.03-.04-.05-.09-.07-.16l-.02-.31c-.08.08-.18.16-.28.24-.1.07-.21.14-.33.19s-.24.1-.38.13c-.13.03-.27.04-.41.04-.22,0-.43-.03-.63-.08-.2-.06-.39-.14-.56-.24-.18-.1-.33-.23-.48-.37-.14-.14-.27-.3-.37-.48-.1-.18-.18-.36-.24-.57s-.08-.41-.08-.63.03-.43.08-.63.14-.39.24-.57c.1-.18.22-.33.37-.48s.3-.27.48-.37c.18-.1.36-.18.56-.24s.41-.08.63-.08c.15,0,.3.02.44.05.14.03.27.08.39.14.12.06.23.13.34.21s.2.17.28.27l.05-.39s.02-.08.04-.11c.01-.03.02-.05.04-.07.02-.02.04-.03.06-.03.02,0,.05,0,.09,0h.36s.08,0,.12.01c.04,0,.07.02.1.03s.06.04.07.06c.02.03.03.06.03.1v4.17ZM97.57,36.44c0,.19.03.38.1.55s.16.32.28.45c.12.13.26.23.42.31s.34.11.53.11.38-.04.55-.11c.17-.08.32-.18.44-.31s.22-.28.3-.45.11-.35.11-.55-.04-.37-.11-.54c-.07-.17-.17-.32-.3-.45-.12-.13-.27-.23-.44-.31-.17-.08-.35-.12-.55-.12s-.37.04-.53.12c-.16.08-.3.18-.42.31-.12.13-.21.28-.28.45-.07.17-.1.35-.1.54Z"/>
        <path class="cls-3" d="M102.31,34.25s.06-.06.08-.07c.02-.02.05-.03.09-.03.04,0,.07,0,.11,0h.36c.07,0,.12.02.16.07.03.05.06.1.07.15l.04.38c.05-.08.12-.16.2-.24.08-.08.18-.15.29-.21.11-.06.24-.11.38-.15.14-.04.3-.06.48-.06.28,0,.54.05.76.15.22.1.41.24.56.42.15.18.27.39.35.63.08.24.12.5.12.78v2.41c0,.09-.02.15-.06.19s-.1.06-.18.06h-.55c-.1,0-.16-.02-.19-.05s-.05-.1-.05-.19v-2.4c0-.13-.02-.25-.06-.37-.04-.12-.11-.23-.19-.33s-.19-.17-.31-.23c-.12-.06-.26-.09-.43-.09-.11,0-.23.02-.34.07-.12.04-.23.11-.33.19-.1.08-.18.18-.25.3-.06.12-.1.25-.1.4v2.34s0,.09,0,.14c0,.05-.01.09-.03.12s-.04.06-.07.09c-.03.02-.07.03-.11.03h-.6c-.08,0-.14-.02-.17-.06-.04-.04-.06-.09-.06-.16v-4.15s.01-.07.04-.11Z"/>
        <path class="cls-3" d="M108.82,38.73c-.19,0-.37-.03-.54-.09-.17-.06-.31-.14-.44-.24-.12-.1-.22-.23-.29-.39-.07-.15-.11-.33-.11-.52v-2.44h-.42c-.07,0-.12-.02-.16-.05s-.05-.08-.05-.15v-.52c0-.07.02-.12.05-.15s.09-.04.16-.04h.42c0-.13,0-.25,0-.38,0-.13,0-.25,0-.38,0-.05.02-.09.05-.11.03-.03.08-.05.14-.07.04-.01.09-.03.15-.05.06-.02.12-.04.18-.06.06-.02.12-.04.18-.05.06-.01.11-.02.14-.02.08,0,.12.02.15.06.02.04.03.1.03.16,0,.15,0,.3,0,.45,0,.15,0,.3,0,.45h.52c.06,0,.11.02.14.05.03.03.05.08.05.15v.49c0,.08-.02.13-.05.17-.03.03-.08.05-.14.05h-.52v.69c0,.08,0,.16,0,.23,0,.07,0,.15,0,.23v.69s0,0,0,.01c0,0,0,0,0,.01v.47c0,.16.03.27.09.34s.16.1.3.1c.05,0,.09.02.12.05.03.04.04.08.04.13v.5c0,.06-.02.11-.05.15-.04.03-.08.05-.15.05Z"/>
        <path class="cls-3" d="M110.94,34.62c.06-.08.13-.15.21-.21.08-.06.17-.12.26-.17.1-.05.21-.09.34-.11.13-.03.27-.04.43-.04.27,0,.51.05.72.16.21.1.39.25.53.43.14.18.25.39.32.63s.11.5.11.77v2.41c0,.09-.02.15-.06.19s-.1.06-.18.06h-.55c-.1,0-.16-.02-.19-.05s-.05-.1-.05-.19v-2.42c0-.13-.02-.25-.07-.37-.04-.12-.11-.23-.19-.32-.08-.09-.18-.17-.3-.22-.12-.06-.25-.08-.39-.08-.11,0-.22.02-.33.06-.11.04-.21.1-.3.18-.09.08-.17.18-.22.29-.06.12-.09.25-.09.39v2.36s0,.09,0,.14c0,.05-.01.09-.03.12s-.04.06-.07.09c-.03.02-.07.03-.11.03h-.6c-.08,0-.14-.02-.17-.06-.04-.04-.06-.09-.06-.16v-5.52c0-.06.02-.11.06-.16.04-.04.09-.06.17-.06h.6c.06,0,.11.02.15.06.04.04.07.09.07.15v1.62Z"/>
        <path class="cls-3" d="M114.81,32.77c0-.15.07-.22.21-.22h.61c.07,0,.12.02.16.05s.06.09.06.16v.54c0,.06-.02.11-.06.16-.04.05-.09.07-.16.07h-.61c-.14,0-.22-.08-.22-.23v-.54ZM114.81,34.37c0-.06.02-.12.05-.16s.09-.06.16-.06h.6s.05,0,.08.02c.03.01.05.03.07.05s.04.04.05.07c.01.03.02.06.02.09v4.15c0,.14-.08.22-.23.22h-.6c-.14,0-.22-.07-.22-.22v-4.15Z"/>
      </g>
      <polyline class="cls-2" points="37.5 27.64 11.51 45.5 31.7 59.58"/>
      <polyline class="cls-2" points="37.95 25.6 8.93 45.54 32.03 61.69"/>
      <polyline class="cls-2" points="46.46 69.96 74.56 89.43 137.93 45.51 74.8 1.75 56.7 14.22"/>
      <polyline class="cls-2" points="53.86 14.61 74.7 .16 140.03 45.49 74.47 91.14 44.31 70.16"/>
    </g>
  </g>
</svg>