<?xml version="1.0" encoding="UTF-8"?>
<svg id="Layer_2" data-name="Layer 2" xmlns="http://www.w3.org/2000/svg" viewBox="0 0 414.33 71.18">
  <defs>
    <style>
      .cls-1 {
        fill: #808285;
      }

      .cls-1, .cls-2, .cls-3 {
        stroke-width: 0px;
      }

      .cls-2 {
        fill: #4d4d4f;
      }

      .cls-3 {
        fill: #c41425;
      }
    </style>
  </defs>
  <g id="Layer_1-2" data-name="Layer 1">
    <g>
      <g>
        <g>
          <path class="cls-1" d="M337.38.05c5.21,0,9.49,1.96,12.82,5.9,3.02,3.57,4.52,7.85,4.52,12.85,0,3.43-.76,6.61-2.27,9.5-1.63,3.13-3.88,5.51-6.72,7.14-2.48,1.41-5.32,2.11-8.52,2.11-5.13,0-9.36-1.96-12.66-5.88-3.01-3.58-4.52-7.98-4.52-13.17,0-3.28.75-6.34,2.27-9.2,1.7-3.17,3.94-5.54,6.72-7.13,2.53-1.41,5.31-2.11,8.36-2.11ZM337.35,8.91c-2.43,0-4.5.97-6.22,2.91-.82.92-1.46,2.03-1.93,3.29-.44,1.2-.66,2.39-.66,3.56,0,2.78.87,5.15,2.59,7.11,1.7,1.94,3.78,2.9,6.25,2.9s4.52-.96,6.24-2.9c1.73-1.94,2.59-4.27,2.59-6.98s-.86-5.11-2.59-6.98c-1.78-1.94-3.86-2.91-6.27-2.91Z"/>
          <path class="cls-1" d="M320.74,36.2l-10.21-14.18c2.86-.68,4.85-2.17,5.99-4.45.85-1.7,1.27-3.51,1.27-5.47,0-1.67-.33-3.29-1-4.85-.86-2-2.11-3.54-3.73-4.61-.02-.02-.06-.04-.09-.05-.01-.02-.02-.03-.04-.04-1.86-1.26-5.33-1.36-5.95-1.37-.2-.02-.46-.03-.62-.03h-12.62c-.23,0-.41.19-.41.43v34.54c0,.23.19.42.41.42h7.82c.23,0,.41-.19.41-.42v-12.75c0-.23.1-.25.21-.05l7.81,12.87c.12.2.4.35.63.35h9.94c.23,0,.31-.16.17-.34ZM308.48,14.4c-.31.71-.82,1.34-1.33,1.74-.08.07-.18.13-.3.19-.72.43-1.66.64-2.94.67-.23.01-.54,0-.75,0h-.78c-.23,0-.41-.19-.41-.42v-7.93c0-.23.18-.41.41-.41h1.19c2.21,0,3.71.61,4.5,1.86.54.81.81,1.66.81,2.52,0,.59-.14,1.18-.41,1.79Z"/>
          <g>
            <path class="cls-1" d="M289.69,16.88h-16.21c-.26,0-.47.21-.47.47v6.21c0,.26.21.47.47.47h7.04c-.22,1.53-.62,2.71-1.22,3.52-1.27,1.73-3.56,2.59-6.05,2.59s-4.43-.85-5.92-2.54c-1.98-2.24-2.97-5.1-2.97-8.58,0-3.06.8-5.67,2.41-7.83,1.59-2.16,3.66-3.24,6.21-3.24,4.94,0,7.39,4.75,7.39,4.75.15.21.47.3.7.19l6.69-2.69c.42-.17.47-.45.43-.65-1.12-2.35-2.41-4.19-3.85-5.54-2.89-2.67-6.53-4.02-10.94-4.02-3.43,0-6.54.77-9.33,2.3-2.83,1.56-5,3.9-6.53,7-1.48,2.97-2.22,6.22-2.22,9.72,0,3.08.58,5.94,1.74,8.63,1.37,3.25,3.47,5.74,6.29,7.47,2.87,1.76,6.12,2.64,9.74,2.64s6.73-.86,9.35-2.58c2.62-1.71,4.62-4.19,5.99-7.41,1.09-2.54,1.7-10.42,1.7-10.42.02-.26-.17-.47-.44-.47Z"/>
            <path class="cls-1" d="M386.27,1.14h-7.71c-.25,0-.46.21-.46.47v18.68c0,1.81-.04,3.05-.13,3.71-.23,1.69-.85,2.99-1.88,3.9-1.08.96-2.4,1.45-3.95,1.45-1.28,0-2.4-.34-3.36-1.04-1.04-.76-1.75-1.88-2.15-3.37-.18-.68-.25-4.17-.25-4.17,0-.26-.01-.68-.01-.94V1.61c0-.26-.21-.47-.48-.47h-7.7c-.26,0-.47.21-.47.47v19.93c0,2.49.14,4.44.44,5.88.7,3.43,2.42,6,5.17,7.71,2.47,1.55,5.36,2.33,8.69,2.33,2.92,0,5.49-.62,7.7-1.84,2.56-1.4,4.47-3.48,5.75-6.24.84-1.84,1.23-7.36,1.23-7.36.01-.27.03-.69.03-.94V1.61c0-.26-.21-.47-.47-.47Z"/>
          </g>
        </g>
        <path class="cls-2" d="M91.85,8.88c-.26,0-.47.21-.47.47v26.74c0,.26-.21.47-.47.47h-7.73c-.26,0-.47-.21-.47-.47V9.35c0-.26-.21-.47-.47-.47h-6.11c-.26,0-.48-.21-.48-.47V1.55c0-.26.22-.47.48-.47h21.97c.26,0,.47.21.47.47v6.86c0,.26-.21.47-.47.47h-6.24Z"/>
        <path class="cls-2" d="M110.14,14.3c0,.26.21.47.47.47h11.56c.26,0,.47-.21.47-.47V1.55c0-.26.21-.47.47-.47h7.73c.26,0,.47.21.47.47v34.54c0,.26-.21.47-.47.47h-7.73c-.25,0-.47-.21-.47-.47v-13.66c0-.26-.21-.47-.47-.47h-11.56c-.26,0-.47.21-.47.47v13.66c0,.26-.21.47-.47.47h-7.73c-.26,0-.47-.21-.47-.47V1.55c0-.26.21-.47.47-.47h7.73c.26,0,.47.21.47.47v12.76Z"/>
        <path class="cls-3" d="M63.58,14.77h-3.55l-.23-.03c-.36-.13-.51-.43-.39-.88h-.01l4.27-9.5c.31-.73.25-1.57-.19-2.23-.43-.65-1.17-1.04-1.97-1.04H18.08c-1.03,0-2,.65-2.41,1.58L1.98,33.28c-.32.75-.26,1.58.17,2.23.44.66,1.17,1.06,1.98,1.06h5.74c1.03,0,2.01-.64,2.42-1.58l10.65-23.64c.05-.08.15-.29.27-.49.15-.14.21-.16.4-.16h24.85c.35.07.61.19.75.4.15.21.13.45.1.62l-1.16,2.51s-.24.38-.43.47c-.03.01-.14.06-.28.08h-19.95c-1.02,0-1.99.63-2.41,1.57l-7.63,16.92c-.33.74-.27,1.58.16,2.24.43.66,1.17,1.05,1.98,1.05h27.93c1.02,0,1.98-.61,2.41-1.53l4.69-10.47.29-.67h0l.02-.02c.31-.46.94-.55,1.41-.55h4.45c.44,0,.89-.29,1.07-.7l2.83-6.31c.42-.88-.34-1.54-1.12-1.54ZM42.18,27.6l-.11.15c-.09.11-.12.11-.23.16-.19.11-.45.13-.71.16h-9.38l-.15-.02c-.45-.16-.5-.45-.46-.73l.1-.28,1.33-2.97c.17-.28.33-.46.52-.55.17-.09.32-.16.61-.19h9.37s.06,0,.06,0c.7,0,.66.41.68.52l-.05.22-1.58,3.52Z"/>
        <path class="cls-2" d="M187.8,30.77c-.07-.22-.32-.39-.55-.39h-11.14c-.23,0-.48.17-.56.39l-2.01,5.41c-.08.21-.34.38-.56.38h-8.33c-.23,0-.35-.17-.28-.38L176.92,1.48c.08-.22.32-.38.56-.38h8.62c.23,0,.48.17.55.39l12.29,34.69c.07.22-.05.39-.28.39h-8.43c-.23,0-.48-.17-.55-.39l-1.88-5.4ZM184.9,23.36c.23,0,.36-.18.29-.4l-3.34-10.52c-.07-.22-.19-.22-.26,0l-3.38,10.52c-.08.23.05.4.29.4h6.39Z"/>
        <path class="cls-2" d="M245.11,8.47c0,.23-.19.41-.42.41h-9.47c-.23,0-.41.2-.41.43v5.09c0,.22.18.41.41.41h8.91c.23,0,.41.19.41.41v6.97c0,.23-.19.42-.41.42h-8.91c-.23,0-.41.18-.41.42v5.33c0,.22.18.41.41.41h9.47c.23,0,.42.19.42.41v6.97c0,.23-.19.41-.42.41h-18.14c-.23,0-.42-.18-.42-.41V1.51c0-.23.19-.41.42-.41h18.14c.23,0,.42.19.42.41v6.96Z"/>
        <path class="cls-2" d="M222.69,2.08c-2.81-1.16-5.38-1.74-7.72-1.74-2.9,0-5.67.73-8.31,2.21-2.9,1.6-5.16,3.8-6.79,6.61-1.73,2.94-2.59,6.26-2.59,9.95,0,3.33.71,6.31,2.12,8.96,1.55,2.9,3.82,5.23,6.82,6.99,2.81,1.64,5.75,2.46,8.82,2.46,1.19,0,2.83-.22,3.8-.42,1.59-.32,3.58-1.18,3.58-1.18.22-.07.39-.32.39-.55v-9.84h0s0-.23,0-.23c0-.22-.14-.28-.3-.14,0,0-2.84,2.85-5.98,3.33-.41.06-.83.08-1.25.08-2.25,0-4.25-.78-6.01-2.36-1.95-1.75-2.93-4.14-2.93-7.17,0-2.82.78-5.08,2.34-6.82,1.76-1.98,3.96-2.97,6.6-2.97,3.48,0,7.21,3.63,7.21,3.63.17.16.32.08.32-.14V2.35c0-.19-.08-.22-.12-.26Z"/>
        <path class="cls-2" d="M162.15,36.23l-10.24-14.22c2.87-.7,4.87-2.18,6.01-4.47.85-1.69,1.27-3.52,1.27-5.48,0-1.68-.34-3.3-1-4.86-.86-2-2.11-3.55-3.74-4.62-.03-.02-.07-.03-.1-.05-.01-.02-.02-.02-.03-.03-1.87-1.27-5.35-1.36-5.97-1.38-.21,0-.46-.02-.62-.02h-12.65c-.23,0-.41.19-.41.41v34.64c0,.23.19.41.41.41h7.84c.23,0,.42-.18.42-.41v-12.79c0-.23.1-.26.21-.06l7.83,12.91c.13.19.41.35.63.35h9.97c.23,0,.3-.15.17-.33ZM149.86,14.37c-.31.71-.82,1.34-1.33,1.75-.08.06-.19.12-.31.19-.72.43-1.67.63-2.95.66-.23.02-.54,0-.74,0h-.78c-.23,0-.41-.19-.41-.41v-7.95c0-.23.18-.42.41-.42h1.19c2.21,0,3.73.63,4.52,1.88.53.81.81,1.66.81,2.51,0,.59-.14,1.19-.42,1.79Z"/>
        <path class="cls-1" d="M398.79,24.75c-.22,0-.41.19-.41.42v10.94c0,.23-.18.42-.41.42h-7.45c-.23,0-.42-.18-.42-.42V1.55c0-.22.19-.41.42-.41h12.35c.23,0,.6.02.83.04,0,0,3.65.17,5.44,1.2,2.11,1.22,3.2,2.7,4.11,4.72.73,1.66,1.09,3.58,1.09,5.78,0,3.58-.85,6.44-2.56,8.59-1.74,2.19-4.48,3.29-8.21,3.29h-4.77ZM398.37,16.95c0,.22.19.41.41.41h1.93c.23,0,.6-.02.83-.05,0,0,1.92.03,2.97-.96.8-.78,1.17-1.91,1.17-3.38,0-2.97-1.51-4.46-4.53-4.46h-2.37c-.22,0-.41.18-.41.42v8.01Z"/>
      </g>
      <g>
        <path class="cls-1" d="M8.55,67.1c-.05-.13-.2-.23-.34-.23H3.27c-.14,0-.29.1-.35.23l-1.36,3.29c-.05.12-.21.23-.34.23H.17c-.14,0-.21-.11-.15-.23l5.68-13.43c.05-.13.14-.13.19,0l5.54,13.43c.05.12-.02.23-.16.23h-1.06c-.14,0-.29-.11-.34-.24l-1.32-3.28ZM7.65,65.48c.14,0,.21-.11.16-.23l-1.94-4.84c-.05-.13-.13-.13-.19,0l-1.99,4.84c-.05.13.02.23.15.23h3.81Z"/>
        <path class="cls-1" d="M24.25,57.36c.14,0,.29.11.33.23l3.23,9.47c.04.13.12.13.17,0l3.82-10.16c.05-.13.13-.13.17,0l3.61,10.15c.05.13.13.13.17,0l3.57-9.48c.05-.13.2-.23.34-.23h1.06c.14,0,.21.11.16.23l-5.16,13.48c-.05.13-.13.13-.17,0l-3.59-10.13c-.05-.13-.12-.13-.17,0l-3.85,10.14c-.05.13-.13.13-.17,0l-4.73-13.49c-.04-.13.03-.23.17-.23h1.06Z"/>
        <path class="cls-1" d="M51.49,57.13c1.17,0,2.26.31,3.26.92,1.05.63,1.87,1.48,2.47,2.52.6,1.06.89,2.2.89,3.43s-.3,2.37-.91,3.43c-.58,1.03-1.36,1.84-2.35,2.46-1.05.64-2.2.97-3.44.97-1.12,0-2.2-.31-3.24-.93-1.1-.64-1.94-1.52-2.52-2.62-.54-1.02-.81-2.15-.81-3.4,0-1.88.7-3.51,2.1-4.9.7-.68,1.5-1.18,2.41-1.5.73-.27,1.43-.39,2.14-.39ZM51.48,58.53c-1.58,0-2.89.62-3.93,1.88-.85,1.03-1.27,2.2-1.27,3.52,0,1.63.54,2.98,1.63,4.04.56.54,1.2.94,1.92,1.21.54.2,1.08.29,1.61.29.97,0,1.86-.26,2.7-.79.82-.51,1.46-1.19,1.9-2.03.43-.82.64-1.7.64-2.65,0-1.55-.53-2.87-1.6-3.96-.55-.56-1.19-.97-1.91-1.22-.57-.2-1.13-.29-1.69-.29Z"/>
        <path class="cls-1" d="M67.27,64.68l3.91,5.72c.08.12.03.21-.11.21h-1.24c-.14,0-.31-.09-.39-.21l-3.57-5.4c-.08-.11-.22-.21-.32-.21s-.18.11-.18.25v5.32c0,.14-.11.25-.25.25h-.93c-.14,0-.25-.11-.25-.25v-12.76c0-.13.11-.25.25-.25h1.57c.14,0,.36,0,.5.01,0,0,1.35.07,1.86.24.82.27,1.44.75,1.84,1.47.34.58.52,1.25.52,2,0,1.29-.46,2.27-1.39,2.93-.52.38-1.13.6-1.82.66ZM65.37,63.25c0,.14.11.25.25.25h.39c.14,0,.36-.02.5-.03,0,0,1.28-.16,1.73-.51.56-.44.83-1.07.83-1.88,0-.87-.31-1.52-.92-1.92-.44-.29-1.08-.43-1.92-.43h-.6c-.14,0-.25.11-.25.24v4.27Z"/>
        <path class="cls-1" d="M77.95,57.36c.14,0,.25.11.25.25v11.38c0,.13.11.25.25.25h3c.14,0,.25.12.25.25v.88c0,.14-.11.25-.25.25h-4.43c-.14,0-.25-.11-.25-.25v-12.76c0-.13.11-.25.25-.25h.93Z"/>
        <path class="cls-1" d="M87.08,70.61c-.14,0-.25-.11-.25-.25v-12.76c0-.13.11-.25.25-.25h2.12c.14,0,.36.01.5.02,0,0,2.18.17,3.03.58,1.26.61,2.22,1.52,2.87,2.79.5.96.75,2.04.75,3.24,0,2.11-.75,3.81-2.24,5.1-.78.66-1.59,1.11-2.46,1.31-.64.15-1.38.22-2.21.22h-2.35ZM88.26,68.99c0,.13.11.25.25.25,0,0,1.71-.02,1.85-.04,0,0,1.88-.37,2.8-1.18,1.16-1.01,1.74-2.35,1.74-4.03,0-1.13-.28-2.13-.85-3.02-.95-1.49-2.46-2.24-4.55-2.24h-1c-.14,0-.25.11-.25.24v10.01Z"/>
        <path class="cls-1" d="M116.11,57.13c1.17,0,2.25.31,3.26.92,1.04.63,1.87,1.48,2.46,2.52.6,1.06.89,2.2.89,3.43s-.3,2.37-.91,3.43c-.58,1.03-1.36,1.84-2.35,2.46-1.05.64-2.2.97-3.44.97-1.12,0-2.2-.31-3.24-.93-1.1-.64-1.94-1.52-2.52-2.62-.55-1.02-.82-2.15-.82-3.4,0-1.88.7-3.51,2.1-4.9.7-.68,1.5-1.18,2.41-1.5.72-.27,1.43-.39,2.14-.39ZM116.1,58.53c-1.58,0-2.89.62-3.93,1.88-.85,1.03-1.27,2.2-1.27,3.52,0,1.63.54,2.98,1.63,4.04.56.54,1.2.94,1.91,1.21.54.2,1.08.29,1.61.29.97,0,1.87-.26,2.7-.79.82-.51,1.45-1.19,1.89-2.03.43-.82.65-1.7.65-2.65,0-1.55-.53-2.87-1.6-3.96-.55-.56-1.19-.97-1.91-1.22-.56-.2-1.13-.29-1.69-.29Z"/>
        <path class="cls-1" d="M134.36,58.48c0,.14-.11.25-.25.25h-3.87c-.14,0-.25.11-.25.24v3.44c0,.13.11.25.25.25h3.73c.14,0,.25.11.25.25v.89c0,.14-.11.25-.25.25h-3.73c-.14,0-.25.11-.25.25v6.07c0,.14-.11.25-.25.25h-.92c-.14,0-.25-.11-.25-.25v-12.76c0-.13.11-.25.25-.25h5.29c.14,0,.25.11.25.25v.88Z"/>
        <path class="cls-1" d="M147.87,70.61c-.14,0-.23-.11-.22-.25l2.04-13.52c.02-.13.08-.14.14-.02l4.69,10.75c.05.12.15.12.2,0l4.81-10.75c.06-.13.12-.11.14.02l1.91,13.52c.02.13-.08.25-.22.25h-.96c-.14,0-.26-.11-.28-.25l-1.13-8.74c-.02-.13-.08-.14-.13-.02l-4.14,9.33c-.05.12-.15.12-.2,0l-4.08-9.32c-.05-.12-.11-.11-.13.02l-1.19,8.74c-.01.13-.14.25-.28.25h-.96Z"/>
        <path class="cls-1" d="M174.88,67.1c-.05-.13-.2-.23-.34-.23h-4.95c-.14,0-.29.1-.34.23l-1.35,3.29c-.05.12-.2.23-.34.23h-1.06c-.14,0-.21-.11-.16-.23l5.68-13.43c.05-.13.14-.13.19,0l5.54,13.43c.05.12-.02.23-.16.23h-1.06c-.14,0-.29-.11-.34-.24l-1.32-3.28ZM173.98,65.48c.14,0,.21-.11.16-.23l-1.95-4.84c-.05-.13-.13-.13-.19,0l-1.99,4.84c-.05.13.02.23.16.23h3.81Z"/>
        <path class="cls-1" d="M185.41,58.73c-.14,0-.25.11-.25.24v11.39c0,.14-.11.25-.25.25h-.93c-.14,0-.25-.11-.25-.25v-11.39c0-.13-.11-.24-.25-.24h-2.59c-.13,0-.25-.12-.25-.25v-.88c0-.13.11-.25.25-.25h7.11c.14,0,.25.11.25.25v.88c0,.14-.12.25-.25.25h-2.6Z"/>
        <path class="cls-1" d="M199.99,58.48c0,.14-.11.25-.25.25h-4.67c-.14,0-.24.11-.24.24v3.44c0,.13.11.25.24.25h4.54c.14,0,.25.11.25.25v.89c0,.14-.11.25-.25.25h-4.54c-.14,0-.24.11-.24.25v4.69c0,.13.11.25.24.25h4.67c.14,0,.25.12.25.25v.88c0,.14-.11.25-.25.25h-6.1c-.14,0-.25-.11-.25-.25v-12.76c0-.13.11-.25.25-.25h6.1c.14,0,.25.11.25.25v.88Z"/>
        <path class="cls-1" d="M209.15,64.68l3.91,5.72c.08.12.03.21-.11.21h-1.24c-.14,0-.31-.09-.38-.21l-3.57-5.4c-.08-.11-.22-.21-.32-.21-.09,0-.19.11-.19.25v5.32c0,.14-.11.25-.25.25h-.93c-.14,0-.25-.11-.25-.25v-12.76c0-.13.11-.25.25-.25h1.57c.14,0,.36,0,.5.01,0,0,1.35.07,1.86.24.82.27,1.44.75,1.84,1.47.35.58.51,1.25.51,2,0,1.29-.46,2.27-1.38,2.93-.52.38-1.13.6-1.82.66ZM207.25,63.25c0,.14.11.25.25.25h.4c.14,0,.36-.02.49-.03,0,0,1.28-.16,1.73-.51.55-.44.83-1.07.83-1.88,0-.87-.31-1.52-.92-1.92-.44-.29-1.09-.43-1.93-.43h-.6c-.14,0-.25.11-.25.24v4.27Z"/>
        <path class="cls-1" d="M219.83,57.36c.14,0,.25.11.25.25v12.76c0,.14-.11.25-.25.25h-.93c-.14,0-.25-.11-.25-.25v-12.76c0-.13.11-.25.25-.25h.93Z"/>
        <path class="cls-1" d="M233.72,67.1c-.05-.13-.2-.23-.34-.23h-4.94c-.14,0-.29.1-.35.23l-1.35,3.29c-.06.12-.21.23-.35.23h-1.05c-.14,0-.2-.11-.15-.23l5.68-13.43c.06-.13.14-.13.2,0l5.53,13.43c.05.12-.01.23-.15.23h-1.06c-.14,0-.29-.11-.34-.24l-1.32-3.28ZM232.82,65.48c.13,0,.2-.11.16-.23l-1.94-4.84c-.05-.13-.14-.13-.19,0l-1.99,4.84c-.05.13.02.23.16.23h3.81Z"/>
        <path class="cls-1" d="M242.85,57.36c.14,0,.25.11.25.25v11.38c0,.13.11.25.25.25h3.01c.13,0,.25.12.25.25v.88c0,.14-.11.25-.25.25h-4.44c-.13,0-.25-.11-.25-.25v-12.76c0-.13.11-.25.25-.25h.93Z"/>
        <path class="cls-1" d="M258.55,59.2l-.91.63c-.12.07-.27.04-.35-.07,0,0-.32-.49-.53-.67-.4-.38-.91-.56-1.53-.56s-1.17.22-1.56.65c-.37.4-.55.86-.55,1.39,0,.58.27,1.05.8,1.43.31.21.64.4,1.01.56l.98.46c.13.05.33.16.45.23,0,0,1.55.86,1.97,1.4.47.59.71,1.31.71,2.13,0,1.24-.45,2.26-1.34,3.06-.76.68-1.66,1.03-2.73,1.03-1.34,0-2.39-.54-3.16-1.6-.34-.48-.6-1.09-.76-1.83l1.14-.32c.13-.04.27.04.31.17,0,0,.23.82.45,1.13.23.32.52.59.88.76.38.2.79.31,1.22.31.74,0,1.35-.27,1.85-.8.47-.5.71-1.11.71-1.81,0-.79-.34-1.43-1.06-1.88-.32-.22-1.08-.6-2.27-1.15-.94-.44-1.6-.92-1.98-1.41-.4-.54-.6-1.15-.6-1.86,0-1.11.42-2,1.27-2.65.68-.51,1.45-.77,2.31-.77,1.43,0,2.53.69,3.29,2.07Z"/>
        <path class="cls-1" d="M275.94,63.05l2.53,3.36c.08.11.23.11.32.01,0,0,.79-.91,1.28-1.56l.83.73c.11.1.12.26.04.36,0,0-.85,1.1-1.47,1.76l2.02,2.68c.08.11.03.2-.1.2h-1.29c-.14,0-.31-.09-.4-.2l-1.08-1.45c-.08-.12-.24-.13-.34-.03,0,0-.62.55-.98.82-1,.74-1.99,1.12-2.94,1.12-1.13,0-2.07-.43-2.8-1.28-.59-.69-.9-1.5-.9-2.42,0-1.23.58-2.31,1.72-3.26.28-.23.8-.61,1.56-1.14-.27-.37-.49-.7-.67-.99-.4-.65-.6-1.26-.6-1.85,0-.81.27-1.49.83-2.05.52-.5,1.16-.76,1.95-.76.83,0,1.5.29,2.02.86.47.51.7,1.13.7,1.82,0,.77-.32,1.49-.97,2.16-.25.25-.66.61-1.28,1.09ZM274.94,64.07c-.08-.12-.24-.14-.35-.06,0,0-1.08.76-1.28.93-.83.7-1.24,1.42-1.24,2.16s.28,1.34.84,1.85c.41.37.89.56,1.44.56.88,0,1.97-.62,3.27-1.86l-2.67-3.6ZM275.12,61.98c.08-.07.16-.12.21-.15.61-.48.99-.81,1.16-1.03.23-.3.35-.65.35-1.02,0-.43-.15-.76-.44-1.01-.28-.24-.6-.36-.96-.36-.43,0-.79.17-1.07.51-.22.28-.33.58-.33.94,0,.4.17.84.5,1.31.33.45.52.72.58.8Z"/>
        <path class="cls-1" d="M299.97,59.2l-.92.63c-.11.07-.27.04-.34-.07,0,0-.32-.49-.53-.67-.4-.38-.91-.56-1.53-.56s-1.17.22-1.57.65c-.35.4-.54.86-.54,1.39,0,.58.26,1.05.8,1.43.31.21.65.4,1.01.56l.99.46c.12.05.32.16.44.23,0,0,1.55.86,1.97,1.4.47.59.7,1.31.7,2.13,0,1.24-.45,2.26-1.33,3.06-.76.68-1.66,1.03-2.72,1.03-1.34,0-2.39-.54-3.17-1.6-.34-.48-.6-1.09-.77-1.83l1.15-.32c.13-.04.27.04.31.17,0,0,.23.82.44,1.13.23.32.52.59.88.76.38.2.78.31,1.21.31.74,0,1.36-.27,1.85-.8.48-.5.71-1.11.71-1.81,0-.79-.35-1.43-1.06-1.88-.32-.22-1.08-.6-2.27-1.15-.93-.44-1.59-.92-1.98-1.41-.4-.54-.59-1.15-.59-1.86,0-1.11.42-2,1.27-2.65.68-.51,1.44-.77,2.31-.77,1.43,0,2.53.69,3.29,2.07Z"/>
        <path class="cls-1" d="M312.22,57.13c1.17,0,2.25.31,3.26.92,1.05.63,1.86,1.48,2.47,2.52.59,1.06.89,2.2.89,3.43s-.31,2.37-.91,3.43c-.58,1.03-1.37,1.84-2.36,2.46-1.06.64-2.2.97-3.44.97-1.12,0-2.2-.31-3.24-.93-1.1-.64-1.94-1.52-2.52-2.62-.54-1.02-.82-2.15-.82-3.4,0-1.88.7-3.51,2.11-4.9.69-.68,1.49-1.18,2.4-1.5.72-.27,1.44-.39,2.14-.39ZM312.21,58.53c-1.58,0-2.89.62-3.93,1.88-.85,1.03-1.27,2.2-1.27,3.52,0,1.63.55,2.98,1.63,4.04.56.54,1.19.94,1.91,1.21.54.2,1.08.29,1.61.29.96,0,1.87-.26,2.7-.79.82-.51,1.45-1.19,1.9-2.03.43-.82.65-1.7.65-2.65,0-1.55-.53-2.87-1.6-3.96-.55-.56-1.19-.97-1.91-1.22-.57-.2-1.14-.29-1.69-.29Z"/>
        <path class="cls-1" d="M325.85,57.36c.14,0,.25.11.25.25v11.38c0,.13.11.25.25.25h3c.14,0,.25.12.25.25v.88c0,.14-.11.25-.25.25h-4.43c-.14,0-.25-.11-.25-.25v-12.76c0-.13.11-.25.25-.25h.93Z"/>
        <path class="cls-1" d="M335.43,57.36c.14,0,.25.11.25.25v7.62c0,.14,0,.36,0,.5,0,0,.03,1.19.13,1.57.16.65.54,1.19,1.12,1.59.57.39,1.19.58,1.85.58.79,0,1.49-.26,2.11-.77.5-.41.81-.98.93-1.67.06-.33.09-.85.09-1.55v-7.87c0-.13.11-.25.25-.25h.93c.14,0,.25.11.25.25v8.03c0,.14-.01.37-.02.5,0,0-.09,1.42-.3,1.96-.35.89-.96,1.58-1.82,2.11-.75.44-1.55.66-2.42.66-1.01,0-1.94-.31-2.77-.91-.79-.58-1.31-1.31-1.55-2.19-.14-.49-.21-1.12-.21-1.87v-8.28c0-.13.11-.25.25-.25h.93Z"/>
        <path class="cls-1" d="M353.23,58.73c-.14,0-.25.11-.25.24v11.39c0,.14-.11.25-.25.25h-.93c-.14,0-.25-.11-.25-.25v-11.39c0-.13-.11-.24-.25-.24h-2.59c-.14,0-.25-.12-.25-.25v-.88c0-.13.11-.25.25-.25h7.12c.14,0,.25.11.25.25v.88c0,.14-.11.25-.25.25h-2.6Z"/>
        <path class="cls-1" d="M362.39,57.36c.13,0,.25.11.25.25v12.76c0,.14-.11.25-.25.25h-.94c-.14,0-.25-.11-.25-.25v-12.76c0-.13.11-.25.25-.25h.94Z"/>
        <path class="cls-1" d="M375.12,57.13c1.17,0,2.26.31,3.26.92,1.04.63,1.87,1.48,2.46,2.52.6,1.06.9,2.2.9,3.43s-.3,2.37-.9,3.43c-.58,1.03-1.37,1.84-2.36,2.46-1.05.64-2.2.97-3.44.97-1.12,0-2.2-.31-3.25-.93-1.09-.64-1.93-1.52-2.52-2.62-.54-1.02-.81-2.15-.81-3.4,0-1.88.7-3.51,2.1-4.9.7-.68,1.5-1.18,2.41-1.5.72-.27,1.43-.39,2.14-.39ZM375.11,58.53c-1.58,0-2.89.62-3.93,1.88-.84,1.03-1.27,2.2-1.27,3.52,0,1.63.54,2.98,1.62,4.04.56.54,1.2.94,1.92,1.21.54.2,1.08.29,1.61.29.97,0,1.87-.26,2.7-.79.83-.51,1.46-1.19,1.9-2.03.43-.82.65-1.7.65-2.65,0-1.55-.53-2.87-1.6-3.96-.54-.56-1.18-.97-1.91-1.22-.56-.2-1.12-.29-1.69-.29Z"/>
        <path class="cls-1" d="M387.82,70.61c-.14,0-.25-.11-.25-.25v-13.32c0-.13.07-.16.17-.07l9.6,10.46c.09.1.17.07.17-.06v-9.77c0-.13.12-.25.25-.25h.93c.14,0,.25.11.25.25v13.37c0,.14-.08.16-.17.06l-9.59-10.45c-.1-.1-.18-.07-.18.07v9.71c0,.14-.11.25-.25.25h-.93Z"/>
        <path class="cls-1" d="M412.27,59.2l-.91.63c-.11.07-.27.04-.34-.07,0,0-.33-.49-.53-.67-.41-.38-.92-.56-1.53-.56-.65,0-1.17.22-1.57.65-.37.4-.54.86-.54,1.39,0,.58.27,1.05.8,1.43.31.21.64.4,1.01.56l.99.46c.12.05.32.16.44.23,0,0,1.55.86,1.97,1.4.46.59.7,1.31.7,2.13,0,1.24-.45,2.26-1.34,3.06-.75.68-1.66,1.03-2.72,1.03-1.34,0-2.39-.54-3.17-1.6-.33-.48-.59-1.09-.75-1.83l1.14-.32c.13-.04.27.04.3.17,0,0,.23.82.45,1.13.23.32.51.59.88.76.38.2.79.31,1.21.31.73,0,1.36-.27,1.86-.8.47-.5.71-1.11.71-1.81,0-.79-.35-1.43-1.06-1.88-.33-.22-1.08-.6-2.26-1.15-.94-.44-1.6-.92-1.98-1.41-.4-.54-.6-1.15-.6-1.86,0-1.11.42-2,1.27-2.65.67-.51,1.45-.77,2.31-.77,1.43,0,2.53.69,3.29,2.07Z"/>
      </g>
      <polygon class="cls-1" points="413 47.45 .08 47.45 .08 46.48 413 46.48 413 47.45 413 47.45"/>
    </g>
  </g>
</svg>