<svg xmlns="http://www.w3.org/2000/svg" xmlns:xlink="http://www.w3.org/1999/xlink" xmlns:inkscape="http://www.inkscape.org/namespaces/inkscape" version="1.1" width="1031" height="264" viewBox="0 0 1031 264">
<defs>
<clipPath id="clip_0">
<path transform="matrix(1,0,0,-1,0,264)" d="M0 264H1031V0H0Z"/>
</clipPath>
</defs>
<g clip-path="url(#clip_0)">
<path transform="matrix(1,0,0,-1,757.467,85.473697)" d="M0 0C-4.516 0-8.369-1.806-11.562-5.407-13.086-7.126-14.283-9.179-15.141-11.529-15.954-13.758-16.37-15.969-16.37-18.143-16.37-23.305-14.758-27.707-11.562-31.353-8.395-34.967-4.541-36.751 .058-36.751 4.594-36.751 8.464-34.967 11.649-31.353 14.863-27.752 16.468-23.425 16.468-18.377 16.468-13.201 14.863-8.888 11.649-5.407 8.342-1.806 4.472 0 0 0M.058 16.455C9.747 16.455 17.695 12.812 23.884 5.498 29.492-1.14 32.291-9.092 32.291-18.377 32.291-24.753 30.885-30.654 28.064-36.025 25.031-41.835 20.848-46.262 15.577-49.293 10.968-51.905 5.685-53.221-.258-53.221-9.801-53.221-17.646-49.585-23.793-42.29-29.391-35.627-32.188-27.46-32.188-17.807-32.188-11.709-30.785-6.02-27.972-.713-24.808 5.175-20.648 9.585-15.473 12.542-10.779 15.163-5.607 16.455 .058 16.455" fill="#ffffff"/>
<path transform="matrix(1,0,0,-1,703.8052,95.685108)" d="M0 0C-.583-1.318-1.528-2.487-2.477-3.227-2.632-3.349-2.821-3.47-3.037-3.572-4.381-4.372-6.131-4.754-8.494-4.81-8.919-4.832-9.502-4.819-9.883-4.819H-11.329C-11.754-4.819-12.097-4.472-12.097-4.039V10.7C-12.097 11.124-11.754 11.458-11.329 11.458H-9.11C-5.011 11.458-2.207 10.318-.737 8.004 .269 6.498 .77 4.924 .77 3.32 .77 2.225 .501 1.12 0 0M22.775-40.519 3.799-14.155C9.108-12.883 12.82-10.115 14.94-5.877 16.511-2.719 17.292 .655 17.292 4.289 17.292 7.4 16.68 10.413 15.433 13.301 13.838 17.023 11.516 19.876 8.493 21.873 8.449 21.909 8.385 21.942 8.328 21.962 8.307 21.995 8.295 22.022 8.251 22.031 4.792 24.369-1.661 24.563-2.799 24.57-3.178 24.603-3.646 24.63-3.95 24.63H-27.405C-27.832 24.63-28.177 24.271-28.177 23.837V-40.365C-28.177-40.8-27.832-41.145-27.405-41.145H-12.867C-12.444-41.145-12.097-40.8-12.097-40.365V-16.662C-12.097-16.237-11.907-16.206-11.702-16.562L2.806-40.488C3.031-40.855 3.558-41.145 3.98-41.145H22.454C22.877-41.145 23.026-40.855 22.775-40.519" fill="#ffffff"/>
<path transform="matrix(1,0,0,-1,668.884,100.2827)" d="M0 0H-30.128C-30.607 0-30.999-.39-30.999-.868V-12.418C-30.999-12.898-30.607-13.299-30.128-13.299H-17.049C-17.45-16.143-18.199-18.339-19.312-19.846-21.666-23.055-25.935-24.665-30.553-24.665-35.11-24.665-38.78-23.091-41.557-19.945-45.234-15.776-47.075-10.46-47.075-4.002-47.075 1.684-45.594 6.534-42.592 10.56-39.637 14.575-35.794 16.58-31.052 16.58-21.868 16.58-17.316 7.761-17.316 7.761-17.038 7.362-16.446 7.206-16.012 7.404L-3.579 12.399C-2.799 12.723-2.712 13.235-2.786 13.604-4.875 17.964-7.262 21.398-9.946 23.897-15.317 28.868-22.089 31.366-30.273 31.366-36.649 31.366-42.427 29.941-47.619 27.086-52.872 24.185-56.922 19.842-59.753 14.072-62.505 8.553-63.879 2.517-63.879-4.002-63.879-9.719-62.808-15.05-60.653-20.034-58.101-26.066-54.199-30.705-48.97-33.918-43.63-37.187-37.597-38.82-30.867-38.82-24.164-38.82-18.365-37.217-13.48-34.017-8.62-30.83-4.897-26.233-2.341-20.236-.314-15.509 .813-.868 .813-.868 .844-.39 .49 0 0 0" fill="#ffffff"/>
<path transform="matrix(1,0,0,-1,848.377,71.036899)" d="M0 0H-14.339C-14.807 0-15.196-.399-15.196-.88V-35.602C-15.196-38.974-15.276-41.272-15.43-42.488-15.856-45.636-17.013-48.042-18.924-49.729-20.938-51.513-23.381-52.415-26.26-52.415-28.643-52.415-30.718-51.781-32.502-50.485-34.44-49.068-35.758-46.984-36.491-44.231-36.82-42.971-36.961-36.48-36.961-36.48-36.972-36.001-36.983-35.214-36.983-34.733V-.88C-36.983-.399-37.372 0-37.867 0H-52.184C-52.673 0-53.059-.399-53.059-.88V-37.92C-53.059-42.545-52.796-46.169-52.248-48.843-50.945-55.212-47.743-59.985-42.639-63.163-38.056-66.049-32.678-67.492-26.482-67.492-21.051-67.492-16.279-66.341-12.175-64.075-7.424-61.468-3.868-57.608-1.481-52.471 .089-49.059 .813-38.789 .813-38.789 .837-38.296 .871-37.515 .871-37.049V-.88C.871-.399 .477 0 0 0" fill="#ffffff"/>
<path transform="matrix(1,0,0,-1,301.1667,85.4193)" d="M0 0C-.481 0-.876-.392-.876-.871V-50.574C-.876-51.057-1.272-51.444-1.756-51.444H-16.122C-16.608-51.444-17.004-51.057-17.004-50.574V-.871C-17.004-.392-17.389 0-17.88 0H-29.245C-29.727 0-30.128 .392-30.128 .88V13.627C-30.128 14.103-29.727 14.497-29.245 14.497H11.595C12.074 14.497 12.47 14.103 12.47 13.627V.88C12.47 .392 12.074 0 11.595 0Z" fill="#ffffff"/>
<path transform="matrix(1,0,0,-1,335.1687,95.5)" d="M0 0C0-.488 .388-.88 .879-.88H22.369C22.86-.88 23.251-.488 23.251 0V23.708C23.251 24.184 23.647 24.577 24.12 24.577H38.492C38.972 24.577 39.368 24.184 39.368 23.708V-40.494C39.368-40.976 38.972-41.363 38.492-41.363H24.12C23.647-41.363 23.251-40.976 23.251-40.494V-15.098C23.251-14.606 22.86-14.217 22.369-14.217H.879C.388-14.217 0-14.606 0-15.098V-40.494C0-40.976-.391-41.363-.877-41.363H-15.249C-15.728-41.363-16.119-40.976-16.119-40.494V23.708C-16.119 24.184-15.728 24.577-15.249 24.577H-.877C-.391 24.577 0 24.184 0 23.708Z" fill="#ffffff"/>
<path transform="matrix(1,0,0,-1,208.8644,120.2063)" d="M0 0-.198-.278C-.369-.481-.426-.481-.621-.568-.966-.768-1.45-.802-1.941-.869H-18.94-19.379L-19.653-.839C-20.49-.535-20.579 0-20.512 .512L-20.328 1.038-17.847 6.556C-17.533 7.07-17.229 7.405-16.887 7.571-16.577 7.739-16.285 7.859-15.751 7.926L1.655 7.941 1.773 7.915C3.082 7.906 3.004 7.149 3.031 6.946L2.941 6.543ZM39.769 23.839H33.163L32.73 23.891C32.055 24.131 31.782 24.695 31.999 25.534H31.98L39.92 43.193C40.505 44.552 40.377 46.115 39.568 47.342 38.767 48.558 37.401 49.284 35.907 49.284H-44.806C-46.712 49.284-48.532 48.079-49.288 46.34L-74.715-10.556C-75.318-11.941-75.201-13.502-74.397-14.695-73.578-15.929-72.213-16.657-70.718-16.657H-60.049C-58.13-16.657-56.312-15.464-55.543-13.714L-35.746 30.219C-35.658 30.371-35.462 30.754-35.24 31.13-34.968 31.388-34.844 31.433-34.498 31.433L11.69 31.42C12.346 31.311 12.815 31.086 13.085 30.692 13.361 30.297 13.333 29.852 13.266 29.549L11.115 24.884C11.115 24.884 10.664 24.182 10.319 24.017 10.261 23.995 10.063 23.902 9.794 23.862H-27.28C-29.174 23.862-30.982 22.69-31.76 20.94L-45.945-10.515C-46.552-11.894-46.44-13.444-45.647-14.685-44.845-15.911-43.475-16.644-41.965-16.644H9.946C11.835-16.644 13.618-15.509 14.421-13.802L23.128 5.663 23.663 6.903 23.697 6.933C24.276 7.783 25.436 7.95 26.324 7.95H34.595C35.415 7.95 36.257 8.498 36.586 9.242L41.85 20.975C42.636 22.603 41.214 23.839 39.769 23.839" fill="#ffffff"/>
<path transform="matrix(1,0,0,-1,474.1155,112.3363)" d="M0 0C.423 0 .668 .33 .535 .739L-5.665 20.283C-5.798 20.686-6.011 20.686-6.146 20.283L-12.421 .739C-12.567 .312-12.32 0-11.886 0ZM5.385-13.776C5.252-13.368 4.783-13.043 4.359-13.043H-16.346C-16.77-13.043-17.238-13.368-17.384-13.767L-21.119-23.824C-21.273-24.216-21.742-24.538-22.164-24.538H-37.641C-38.064-24.538-38.29-24.216-38.154-23.824L-14.84 40.677C-14.696 41.078-14.238 41.39-13.793 41.39H2.231C2.654 41.39 3.12 41.078 3.256 40.662L26.089-23.815C26.224-24.216 25.991-24.538 25.565-24.538H9.9C9.477-24.538 9.009-24.216 8.875-23.815Z" fill="#ffffff"/>
<path transform="matrix(1,0,0,-1,586.0218,84.6606)" d="M0 0C0-.427-.349-.759-.773-.759H-18.379C-18.813-.759-19.149-1.125-19.149-1.55V-11.014C-19.149-11.429-18.813-11.785-18.379-11.785H-1.82C-1.399-11.785-1.049-12.141-1.049-12.553V-25.509C-1.049-25.937-1.399-26.284-1.82-26.284H-18.379C-18.813-26.284-19.149-26.625-19.149-27.062V-36.963C-19.149-37.373-18.813-37.731-18.379-37.731H-.773C-.349-37.731 0-38.076 0-38.497V-51.445C0-51.879-.349-52.213-.773-52.213H-34.497C-34.919-52.213-35.279-51.879-35.279-51.445V12.945C-35.279 13.37-34.919 13.714-34.497 13.714H-.773C-.349 13.714 0 13.37 0 12.945Z" fill="#ffffff"/>
<path transform="matrix(1,0,0,-1,544.3521,72.7865)" d="M0 0C-5.224 2.165-10.005 3.242-14.355 3.242-19.74 3.242-24.901 1.886-29.797-.859-35.193-3.824-39.385-7.917-42.419-13.137-45.63-18.61-47.235-24.775-47.235-31.631-47.235-37.818-45.919-43.363-43.289-48.289-40.411-53.685-36.186-58.012-30.61-61.289-25.381-64.343-19.918-65.87-14.222-65.87-12.013-65.87-8.969-65.461-7.161-65.091-4.197-64.499-.505-62.895-.505-62.895-.102-62.759 .223-62.292 .223-61.871V-43.574-43.585-43.149C.223-42.748-.033-42.634-.338-42.895-.338-42.895-5.622-48.188-11.443-49.09-12.213-49.206-12.982-49.248-13.763-49.248-17.945-49.248-21.669-47.797-24.937-44.868-28.57-41.61-30.386-37.17-30.386-31.542-30.386-26.302-28.938-22.1-26.029-18.875-22.749-15.197-18.669-13.355-13.763-13.355-7.298-13.355-.367-20.103-.367-20.103-.045-20.394 .223-20.258 .223-19.844V-.49C.223-.133 .078-.078 0 0" fill="#ffffff"/>
<path transform="matrix(1,0,0,-1,408.9892,95.621509)" d="M0 0C-.579-1.323-1.527-2.496-2.474-3.247-2.631-3.356-2.82-3.467-3.042-3.594-4.382-4.392-6.142-4.77-8.516-4.817-8.942-4.863-9.522-4.833-9.9-4.833H-11.35C-11.785-4.833-12.12-4.48-12.12-4.069V10.712C-12.12 11.148-11.785 11.498-11.35 11.498H-9.131C-5.017 11.498-2.207 10.335-.722 8.004 .268 6.49 .781 4.928 .781 3.332 .781 2.229 .514 1.116 0 0M22.847-40.639 3.813-14.205C9.144-12.912 12.867-10.148 14.985-5.89 16.558-2.743 17.35 .659 17.35 4.303 17.35 7.425 16.726 10.442 15.487 13.337 13.882 17.06 11.562 19.936 8.542 21.931 8.485 21.967 8.418 21.987 8.351 22.022 8.329 22.053 8.318 22.067 8.296 22.08 4.818 24.443-1.652 24.614-2.796 24.643-3.189 24.661-3.645 24.675-3.958 24.675H-27.473C-27.897 24.675-28.244 24.331-28.244 23.906V-40.485C-28.244-40.918-27.897-41.252-27.473-41.252H-12.9C-12.475-41.252-12.12-40.918-12.12-40.485V-16.715C-12.12-16.288-11.941-16.232-11.73-16.611L2.82-40.606C3.055-40.964 3.579-41.252 3.993-41.252H22.525C22.945-41.252 23.081-40.976 22.847-40.639" fill="#ffffff"/>
<path transform="matrix(1,0,0,-1,870.8798,100.425998)" d="M0 0C0-.416 .361-.768 .771-.768H4.351C4.772-.768 5.465-.724 5.89-.679 5.89-.679 9.458-.739 11.411 1.105 12.901 2.546 13.584 4.659 13.584 7.382 13.584 12.898 10.774 15.664 5.167 15.664H.771C.361 15.664 0 15.321 0 14.885ZM.771-14.495C.361-14.495 0-14.852 0-15.266V-35.595C0-36.027-.332-36.37-.766-36.37H-14.615C-15.039-36.37-15.393-36.027-15.393-35.595V28.634C-15.393 29.046-15.039 29.389-14.615 29.389H8.344C8.767 29.389 9.458 29.344 9.881 29.311 9.881 29.311 16.657 28.999 19.996 27.082 23.919 24.806 25.948 22.067 27.63 18.308 28.995 15.219 29.66 11.653 29.66 7.57 29.66 .915 28.077-4.402 24.895-8.389 21.657-12.464 16.575-14.495 9.636-14.495Z" fill="#ffffff"/>
<path transform="matrix(1,0,0,-1,144.6793,190.6154)" d="M0 0C.257 0 .384 .2 .289 .434L-3.322 9.422C-3.417 9.663-3.572 9.663-3.673 9.429L-7.365 .434C-7.457 .2-7.336 0-7.081 0ZM1.673-3.013C1.579-2.768 1.294-2.577 1.036-2.577H-8.145C-8.406-2.577-8.691-2.768-8.787-3.013L-11.307-9.122C-11.405-9.344-11.691-9.545-11.947-9.545H-13.903C-14.158-9.545-14.287-9.344-14.182-9.122L-3.623 15.843C-3.522 16.089-3.362 16.089-3.265 15.843L7.026-9.122C7.119-9.344 6.992-9.545 6.736-9.545H4.761C4.505-9.545 4.222-9.344 4.125-9.106Z" fill="#ffffff"/>
<path transform="matrix(1,0,0,-1,175.5241,175.51959)" d="M0 0C.263 0 .532-.2 .622-.436L6.619-18.04C6.702-18.285 6.841-18.285 6.932-18.051L14.034 .833C14.122 1.08 14.268 1.069 14.351 .833L21.059-18.04C21.147-18.285 21.293-18.285 21.381-18.051L28.014-.436C28.104-.2 28.384 0 28.639 0H30.602C30.858 0 30.986-.2 30.897-.436L21.298-25.492C21.207-25.732 21.059-25.732 20.977-25.492L14.307-6.658C14.222-6.413 14.078-6.413 13.99-6.658L6.83-25.512C6.741-25.759 6.596-25.759 6.514-25.512L-2.28-.436C-2.358-.2-2.223 0-1.967 0Z" fill="#ffffff"/>
<path transform="matrix(1,0,0,-1,226.15,177.6924)" d="M0 0C-2.942 0-5.374-1.162-7.308-3.501-8.886-5.422-9.672-7.592-9.672-10.035-9.672-13.057-8.663-15.567-6.65-17.553-5.608-18.553-4.421-19.301-3.086-19.804-2.08-20.172-1.074-20.339-.087-20.339 1.713-20.339 3.379-19.847 4.929-18.878 6.456-17.929 7.637-16.671 8.46-15.099 9.255-13.577 9.654-11.945 9.654-10.182 9.654-7.304 8.662-4.841 6.689-2.822 5.669-1.775 4.482-1.027 3.145-.546 2.092-.169 1.043 0 0 0M.018 2.597C2.198 2.597 4.215 2.028 6.078 .888 8.024-.292 9.552-1.864 10.66-3.802 11.78-5.774 12.321-7.895 12.321-10.182 12.321-12.444 11.764-14.586 10.637-16.558 9.566-18.464 8.106-19.98 6.274-21.122 4.314-22.312 2.186-22.926-.122-22.926-2.201-22.926-4.213-22.343-6.144-21.198-8.183-20.005-9.745-18.366-10.836-16.335-11.839-14.439-12.341-12.337-12.341-10.015-12.341-6.514-11.038-3.494-8.44-.915-7.146 .345-5.647 1.271-3.958 1.87-2.608 2.365-1.293 2.597 .018 2.597" fill="#ffffff"/>
<path transform="matrix(1,0,0,-1,251.9636,186.4679)" d="M0 0C0-.256 .21-.468 .467-.468H1.192C1.449-.468 1.86-.437 2.118-.41 2.118-.41 4.491-.122 5.327 .535 6.366 1.348 6.878 2.521 6.878 4.024 6.878 5.639 6.309 6.846 5.159 7.59 4.335 8.126 3.146 8.393 1.589 8.393H.467C.21 8.393 0 8.184 0 7.939ZM3.532-2.664 10.803-13.303C10.948-13.517 10.859-13.693 10.603-13.693H8.306C8.05-13.693 7.726-13.517 7.581-13.303L.937-3.265C.791-3.055 .524-2.877 .339-2.877 .154-2.877 0-3.089 0-3.332V-13.226C0-13.48-.206-13.693-.463-13.693H-2.186C-2.442-13.693-2.654-13.48-2.654-13.226V10.489C-2.654 10.738-2.442 10.948-2.186 10.948H.724C.98 10.948 1.392 10.937 1.648 10.925 1.648 10.925 4.157 10.803 5.106 10.482 6.633 9.977 7.775 9.079 8.528 7.748 9.164 6.665 9.488 5.432 9.488 4.024 9.488 1.63 8.628-.189 6.911-1.428 5.942-2.144 4.816-2.545 3.532-2.664" fill="#ffffff"/>
<path transform="matrix(1,0,0,-1,275.3431,175.51959)" d="M0 0C.257 0 .469-.211 .469-.459V-21.619C.469-21.866 .669-22.075 .926-22.075H6.506C6.764-22.075 6.969-22.289 6.969-22.543V-24.175C6.969-24.429 6.764-24.641 6.506-24.641H-1.729C-1.985-24.641-2.195-24.429-2.195-24.175V-.459C-2.195-.211-1.985 0-1.729 0Z" fill="#ffffff"/>
<path transform="matrix(1,0,0,-1,294.4999,197.1387)" d="M0 0C0-.247 .211-.456 .467-.456 .467-.456 3.651-.425 3.906-.39 3.906-.39 7.402 .289 9.117 1.795 11.278 3.677 12.346 6.166 12.346 9.289 12.346 11.386 11.829 13.257 10.769 14.903 9.005 17.671 6.191 19.063 2.319 19.063H.467C.211 19.063 0 18.855 0 18.61ZM-2.192-3.022C-2.443-3.022-2.656-2.81-2.656-2.556V21.16C-2.656 21.408-2.443 21.619-2.192 21.619H1.749C2.005 21.619 2.424 21.595 2.675 21.585 2.675 21.585 6.722 21.261 8.3 20.505 10.645 19.376 12.42 17.671 13.637 15.319 14.561 13.533 15.023 11.526 15.023 9.299 15.023 5.373 13.637 2.218 10.859-.178 9.415-1.405 7.898-2.243 6.287-2.606 5.093-2.886 3.723-3.022 2.177-3.022Z" fill="#ffffff"/>
<path transform="matrix(1,0,0,-1,346.2441,177.6924)" d="M0 0C-2.943 0-5.373-1.162-7.308-3.501-8.886-5.422-9.668-7.592-9.668-10.035-9.668-13.057-8.669-15.567-6.644-17.553-5.607-18.553-4.421-19.301-3.089-19.804-2.085-20.172-1.087-20.339-.09-20.339 1.705-20.339 3.379-19.847 4.934-18.878 6.462-17.929 7.638-16.671 8.453-15.099 9.254-13.577 9.656-11.945 9.656-10.182 9.656-7.304 8.663-4.841 6.691-2.822 5.665-1.775 4.487-1.027 3.139-.546 2.096-.169 1.044 0 0 0M.023 2.597C2.191 2.597 4.21 2.028 6.077 .888 8.018-.292 9.544-1.864 10.658-3.802 11.775-5.774 12.321-7.895 12.321-10.182 12.321-12.444 11.764-14.586 10.637-16.558 9.568-18.464 8.107-19.98 6.266-21.122 4.308-22.312 2.18-22.926-.121-22.926-2.208-22.926-4.215-22.343-6.143-21.198-8.184-20.005-9.75-18.366-10.827-16.335-11.84-14.439-12.343-12.337-12.343-10.015-12.343-6.514-11.049-3.494-8.438-.915-7.14 .345-5.642 1.271-3.958 1.87-2.614 2.365-1.294 2.597 .023 2.597" fill="#ffffff"/>
<path transform="matrix(1,0,0,-1,380.179,177.607)" d="M0 0C0-.254-.212-.468-.467-.468H-7.666C-7.917-.468-8.123-.677-8.123-.922V-7.324C-8.123-7.57-7.917-7.783-7.666-7.783H-.724C-.467-7.783-.257-7.981-.257-8.238V-9.885C-.257-10.146-.467-10.355-.724-10.355H-7.666C-7.917-10.355-8.123-10.554-8.123-10.812V-22.087C-8.123-22.341-8.336-22.554-8.591-22.554H-10.308C-10.564-22.554-10.777-22.341-10.777-22.087V1.628C-10.777 1.877-10.564 2.087-10.308 2.087H-.467C-.212 2.087 0 1.877 0 1.628Z" fill="#ffffff"/>
<path transform="matrix(1,0,0,-1,405.2882,200.1606)" d="M0 0C-.257 0-.436 .212-.402 .456L3.39 25.59C3.422 25.833 3.535 25.857 3.647 25.621L12.363 5.641C12.465 5.409 12.634 5.409 12.733 5.641L21.664 25.621C21.774 25.857 21.887 25.833 21.92 25.59L25.478 .456C25.509 .212 25.333 0 25.076 0H23.292C23.036 0 22.801 .212 22.767 .456L20.661 16.702C20.627 16.949 20.514 16.969 20.414 16.738L12.723-.603C12.621-.824 12.453-.824 12.342-.592L4.75 16.738C4.649 16.969 4.537 16.949 4.505 16.702L2.295 .456C2.274 .212 2.03 0 1.783 0Z" fill="#ffffff"/>
<path transform="matrix(1,0,0,-1,453.8215,190.6154)" d="M0 0C.258 0 .381 .2 .291 .434L-3.332 9.422C-3.421 9.663-3.578 9.663-3.679 9.429L-7.369 .434C-7.469 .2-7.335 0-7.079 0ZM1.674-3.013C1.573-2.768 1.295-2.577 1.038-2.577H-8.159C-8.415-2.577-8.696-2.768-8.796-3.013L-11.306-9.122C-11.407-9.344-11.682-9.545-11.94-9.545H-13.902C-14.158-9.545-14.293-9.344-14.193-9.122L-3.633 15.843C-3.534 16.089-3.366 16.089-3.278 15.843L7.013-9.122C7.113-9.344 6.983-9.545 6.725-9.545H4.762C4.506-9.545 4.215-9.344 4.126-9.106Z" fill="#ffffff"/>
<path transform="matrix(1,0,0,-1,475.0629,178.0752)" d="M0 0C-.257 0-.468-.209-.468-.454V-21.619C-.468-21.873-.681-22.085-.925-22.085H-2.653C-2.909-22.085-3.121-21.873-3.121-21.619V-.454C-3.121-.209-3.333 0-3.579 0H-8.395C-8.642 0-8.853 .214-8.853 .468V2.096C-8.853 2.345-8.642 2.556-8.395 2.556H4.827C5.083 2.556 5.297 2.345 5.297 2.096V.468C5.297 .214 5.083 0 4.827 0Z" fill="#ffffff"/>
<path transform="matrix(1,0,0,-1,502.1678,177.607)" d="M0 0C0-.254-.213-.468-.468-.468H-9.155C-9.411-.468-9.61-.677-9.61-.922V-7.324C-9.61-7.57-9.411-7.783-9.155-7.783H-.725C-.468-7.783-.267-7.981-.267-8.238V-9.885C-.267-10.146-.468-10.355-.725-10.355H-9.155C-9.411-10.355-9.61-10.554-9.61-10.812V-19.532C-9.61-19.779-9.411-19.987-9.155-19.987H-.468C-.213-19.987 0-20.201 0-20.455V-22.087C0-22.341-.213-22.554-.468-22.554H-11.809C-12.066-22.554-12.274-22.341-12.274-22.087V1.628C-12.274 1.877-12.066 2.087-11.809 2.087H-.468C-.213 2.087 0 1.877 0 1.628Z" fill="#ffffff"/>
<path transform="matrix(1,0,0,-1,515.6483,186.4679)" d="M0 0C0-.256 .211-.468 .467-.468H1.204C1.459-.468 1.873-.437 2.12-.41 2.12-.41 4.492-.122 5.343 .535 6.368 1.348 6.881 2.521 6.881 4.024 6.881 5.639 6.309 6.846 5.173 7.59 4.348 8.126 3.155 8.393 1.582 8.393H.467C.211 8.393 0 8.184 0 7.939ZM3.546-2.664 10.806-13.303C10.946-13.517 10.858-13.693 10.603-13.693H8.295C8.039-13.693 7.714-13.517 7.581-13.303L.946-3.265C.802-3.055 .534-2.877 .344-2.877 .168-2.877 0-3.089 0-3.332V-13.226C0-13.48-.2-13.693-.456-13.693H-2.185C-2.442-13.693-2.654-13.48-2.654-13.226V10.489C-2.654 10.738-2.442 10.948-2.185 10.948H.725C.981 10.948 1.394 10.937 1.649 10.925 1.649 10.925 4.158 10.803 5.107 10.482 6.634 9.977 7.784 9.079 8.53 7.748 9.174 6.665 9.478 5.432 9.478 4.024 9.478 1.63 8.629-.189 6.921-1.428 5.955-2.144 4.816-2.545 3.546-2.664" fill="#ffffff"/>
<path transform="matrix(1,0,0,-1,539.0287,175.51959)" d="M0 0C.254 0 .456-.211 .456-.459V-24.175C.456-24.429 .254-24.641 0-24.641H-1.727C-1.985-24.641-2.195-24.429-2.195-24.175V-.459C-2.195-.211-1.985 0-1.727 0Z" fill="#ffffff"/>
<path transform="matrix(1,0,0,-1,563.1887,190.6154)" d="M0 0C.247 0 .379 .2 .289 .434L-3.32 9.422C-3.418 9.663-3.577 9.663-3.666 9.429L-7.362 .434C-7.462 .2-7.329 0-7.073 0ZM1.67-3.013C1.583-2.768 1.296-2.577 1.038-2.577H-8.142C-8.4-2.577-8.69-2.768-8.789-3.013L-11.304-9.122C-11.408-9.344-11.696-9.545-11.953-9.545H-13.911C-14.167-9.545-14.292-9.344-14.189-9.122L-3.632 15.843C-3.519 16.089-3.365 16.089-3.265 15.843L7.004-9.122C7.106-9.344 6.981-9.545 6.726-9.545H4.754C4.5-9.545 4.209-9.344 4.122-9.106Z" fill="#ffffff"/>
<path transform="matrix(1,0,0,-1,581.8254,175.51959)" d="M0 0C.258 0 .468-.211 .468-.459V-21.619C.468-21.866 .67-22.075 .926-22.075H6.521C6.768-22.075 6.979-22.289 6.979-22.543V-24.175C6.979-24.429 6.768-24.641 6.521-24.641H-1.726C-1.973-24.641-2.182-24.429-2.182-24.175V-.459C-2.182-.211-1.973 0-1.726 0Z" fill="#ffffff"/>
<path transform="matrix(1,0,0,-1,610.9932,178.9447)" d="M0 0-1.693-1.169C-1.908-1.307-2.196-1.243-2.343-1.036-2.343-1.036-2.94-.133-3.323 .203-4.069 .906-5.017 1.252-6.168 1.252-7.36 1.252-8.342 .851-9.073 .036-9.758-.713-10.092-1.57-10.092-2.55-10.092-3.619-9.591-4.501-8.607-5.204-8.024-5.594-7.411-5.953-6.734-6.242L-4.91-7.09C-4.67-7.189-4.3-7.378-4.078-7.514-4.078-7.514-1.192-9.11-.425-10.112 .443-11.213 .893-12.542 .893-14.068 .893-16.366 .056-18.263-1.592-19.753-2.997-21.014-4.67-21.673-6.657-21.673-9.144-21.673-11.103-20.67-12.533-18.698-13.168-17.813-13.647-16.677-13.945-15.293L-11.83-14.693C-11.585-14.615-11.328-14.762-11.262-15.003-11.262-15.003-10.836-16.521-10.435-17.103-10.015-17.702-9.464-18.194-8.808-18.519-8.093-18.898-7.347-19.087-6.543-19.087-5.171-19.087-4.037-18.584-3.111-17.593-2.231-16.658-1.795-15.528-1.795-14.223-1.795-12.751-2.432-11.571-3.759-10.736-4.358-10.32-5.765-9.62-7.973-8.592-9.721-7.779-10.948-6.888-11.649-5.964-12.398-4.959-12.758-3.822-12.758-2.507-12.758-.446-11.972 1.207-10.402 2.423-9.144 3.369-7.714 3.85-6.108 3.85-3.458 3.85-1.412 2.567 0 0" fill="#ffffff"/>
<path transform="matrix(1,0,0,-1,641.7999,184.1066)" d="M0 0C.158 .134 .29 .225 .381 .283 1.517 1.172 2.229 1.797 2.53 2.2 2.966 2.753 3.18 3.412 3.18 4.095 3.18 4.897 2.899 5.51 2.363 5.977 1.839 6.414 1.252 6.637 .581 6.637-.223 6.637-.891 6.325-1.405 5.688-1.806 5.173-2.018 4.607-2.018 3.937-2.018 3.187-1.706 2.378-1.082 1.495-.477 .661-.111 .16 0 0M-.332-3.882C-.486-3.666-.782-3.621-.991-3.779-.991-3.779-2.997-5.191-3.374-5.516-4.917-6.812-5.676-8.159-5.676-9.531-5.676-10.88-5.164-12.018-4.115-12.976-3.345-13.667-2.454-14.014-1.438-14.014 .205-14.014 2.229-12.865 4.639-10.565ZM1.517-2.004 6.213-8.257C6.365-8.462 6.636-8.469 6.803-8.284 6.803-8.284 8.262-6.601 9.186-5.383L10.738-6.741C10.936-6.923 10.959-7.226 10.805-7.411 10.805-7.411 9.222-9.464 8.072-10.691L11.82-15.677C11.977-15.887 11.883-16.054 11.64-16.054H9.242C8.984-16.054 8.663-15.887 8.507-15.677L6.5-12.988C6.342-12.774 6.055-12.754 5.875-12.932 5.875-12.932 4.726-13.956 4.058-14.451 2.196-15.818 .367-16.532-1.405-16.532-3.51-16.532-5.251-15.74-6.601-14.157-7.703-12.88-8.273-11.371-8.273-9.663-8.273-7.38-7.2-5.373-5.073-3.601-4.559-3.166-3.59-2.461-2.165-1.481-2.664-.802-3.077-.187-3.411 .359-4.16 1.573-4.527 2.71-4.527 3.793-4.527 5.298-4.017 6.567-2.987 7.596-2.026 8.531-.824 9.012 .637 9.012 2.178 9.012 3.423 8.474 4.383 7.414 5.253 6.458 5.687 5.318 5.687 4.038 5.687 2.612 5.086 1.261 3.891 .016 3.434-.448 2.655-1.113 1.517-2.004" fill="#ffffff"/>
<path transform="matrix(1,0,0,-1,687.9817,178.9447)" d="M0 0-1.703-1.169C-1.915-1.307-2.207-1.243-2.341-1.036-2.341-1.036-2.942-.133-3.321 .203-4.069 .906-5.015 1.252-6.166 1.252-7.367 1.252-8.34 .851-9.088 .036-9.745-.713-10.09-1.57-10.09-2.55-10.09-3.619-9.598-4.501-8.607-5.204-8.026-5.594-7.4-5.953-6.734-6.242L-4.891-7.09C-4.67-7.189-4.291-7.378-4.069-7.514-4.069-7.514-1.194-9.11-.412-10.112 .457-11.213 .893-12.542 .893-14.068 .893-16.366 .065-18.263-1.581-19.753-2.988-21.014-4.67-21.673-6.645-21.673-9.131-21.673-11.092-20.67-12.531-18.698-13.166-17.813-13.646-16.677-13.959-15.293L-11.828-14.693C-11.582-14.615-11.326-14.762-11.261-15.003-11.261-15.003-10.836-16.521-10.436-17.103-10.012-17.702-9.467-18.194-8.797-18.519-8.093-18.898-7.345-19.087-6.543-19.087-5.171-19.087-4.024-18.584-3.111-17.593-2.216-16.658-1.782-15.528-1.782-14.223-1.782-12.751-2.439-11.571-3.746-10.736-4.347-10.32-5.752-9.62-7.973-8.592-9.71-7.779-10.937-6.888-11.649-5.964-12.389-4.959-12.754-3.822-12.754-2.507-12.754-.446-11.976 1.207-10.4 2.423-9.14 3.369-7.716 3.85-6.109 3.85-3.445 3.85-1.416 2.567 0 0" fill="#ffffff"/>
<path transform="matrix(1,0,0,-1,710.7278,177.6924)" d="M0 0C-2.935 0-5.376-1.162-7.311-3.501-8.886-5.422-9.68-7.592-9.68-10.035-9.68-13.057-8.661-15.567-6.643-17.553-5.607-18.553-4.429-19.301-3.087-19.804-2.084-20.172-1.08-20.339-.091-20.339 1.703-20.339 3.378-19.847 4.928-18.878 6.46-17.929 7.625-16.671 8.451-15.099 9.253-13.577 9.658-11.945 9.658-10.182 9.658-7.304 8.665-4.841 6.69-2.822 5.663-1.775 4.485-1.027 3.147-.546 2.087-.169 1.036 0 0 0M.026 2.597C2.2 2.597 4.215 2.028 6.079 .888 8.026-.292 9.542-1.864 10.669-3.802 11.763-5.774 12.331-7.895 12.331-10.182 12.331-12.444 11.763-14.586 10.647-16.558 9.563-18.464 8.102-19.98 6.266-21.122 4.304-22.312 2.185-22.926-.123-22.926-2.207-22.926-4.213-22.343-6.142-21.198-8.184-20.005-9.743-18.366-10.828-16.335-11.839-14.439-12.355-12.337-12.355-10.015-12.355-6.514-11.05-3.494-8.429-.915-7.149 .345-5.654 1.271-3.96 1.87-2.621 2.365-1.29 2.597 .026 2.597" fill="#ffffff"/>
<path transform="matrix(1,0,0,-1,736.0822,175.51959)" d="M0 0C.256 0 .459-.211 .459-.459V-21.619C.459-21.866 .668-22.075 .926-22.075H6.511C6.768-22.075 6.979-22.289 6.979-22.543V-24.175C6.979-24.429 6.768-24.641 6.511-24.641H-1.726C-1.984-24.641-2.184-24.429-2.184-24.175V-.459C-2.184-.211-1.984 0-1.726 0Z" fill="#ffffff"/>
<path transform="matrix(1,0,0,-1,753.8987,175.51959)" d="M0 0C.254 0 .465-.211 .465-.459V-14.627C.465-14.887 .465-15.297 .477-15.553 .477-15.553 .535-17.762 .713-18.475 1.016-19.692 1.717-20.683 2.786-21.428 3.848-22.153 4.993-22.512 6.233-22.512 7.708-22.512 9.01-22.029 10.148-21.08 11.086-20.318 11.662-19.267 11.874-17.971 11.988-17.35 12.043-16.399 12.043-15.081V-.459C12.043-.211 12.255 0 12.502 0H14.228C14.486 0 14.7-.211 14.7-.459V-15.375C14.7-15.633 14.676-16.059 14.662-16.301 14.662-16.301 14.498-18.935 14.106-19.946 13.458-21.608 12.33-22.879 10.729-23.862 9.335-24.685 7.85-25.098 6.233-25.098 4.358-25.098 2.634-24.53 1.082-23.401-.388-22.323-1.347-20.962-1.804-19.323-2.073-18.419-2.196-17.25-2.196-15.843V-.459C-2.196-.211-1.986 0-1.726 0Z" fill="#ffffff"/>
<path transform="matrix(1,0,0,-1,786.9814,178.0752)" d="M0 0C-.256 0-.468-.209-.468-.454V-21.619C-.468-21.873-.681-22.085-.938-22.085H-2.666C-2.922-22.085-3.133-21.873-3.133-21.619V-.454C-3.133-.209-3.332 0-3.59 0H-8.398C-8.65 0-8.854 .214-8.854 .468V2.096C-8.854 2.345-8.65 2.556-8.398 2.556H4.828C5.086 2.556 5.294 2.345 5.294 2.096V.468C5.294 .214 5.086 0 4.828 0Z" fill="#ffffff"/>
<path transform="matrix(1,0,0,-1,804.0082,175.51959)" d="M0 0C.245 0 .456-.211 .456-.459V-24.175C.456-24.429 .245-24.641 0-24.641H-1.741C-1.998-24.641-2.207-24.429-2.207-24.175V-.459C-2.207-.211-1.998 0-1.741 0Z" fill="#ffffff"/>
<path transform="matrix(1,0,0,-1,827.6328,177.6924)" d="M0 0C-2.933 0-5.374-1.162-7.302-3.501-8.865-5.422-9.656-7.592-9.656-10.035-9.656-13.057-8.651-15.567-6.645-17.553-5.596-18.553-4.412-19.301-3.076-19.804-2.071-20.172-1.069-20.339-.078-20.339 1.719-20.339 3.391-19.847 4.941-18.878 6.478-17.929 7.647-16.671 8.464-15.099 9.257-13.577 9.665-11.945 9.665-10.182 9.665-7.304 8.676-4.841 6.689-2.822 5.677-1.775 4.492-1.027 3.14-.546 2.096-.169 1.051 0 0 0M.031 2.597C2.209 2.597 4.229 2.028 6.088 .888 8.028-.292 9.558-1.864 10.669-3.802 11.789-5.774 12.339-7.895 12.339-10.182 12.339-12.444 11.776-14.586 10.662-16.558 9.574-18.464 8.115-19.98 6.28-21.122 4.329-22.312 2.187-22.926-.112-22.926-2.196-22.926-4.202-22.343-6.144-21.198-8.171-20.005-9.734-18.366-10.825-16.335-11.83-14.439-12.328-12.337-12.328-10.015-12.328-6.514-11.024-3.494-8.427-.915-7.124 .345-5.639 1.271-3.946 1.87-2.61 2.365-1.283 2.597 .031 2.597" fill="#ffffff"/>
<path transform="matrix(1,0,0,-1,851.2628,200.1606)" d="M0 0C-.258 0-.459 .212-.459 .466V25.224C-.459 25.465-.327 25.521-.147 25.347L17.7 5.91C17.871 5.721 18.014 5.775 18.014 6.03V24.182C18.014 24.43 18.23 24.641 18.47 24.641H20.201C20.457 24.641 20.668 24.43 20.668 24.182V-.67C20.668-.928 20.521-.969 20.343-.781L2.517 18.642C2.338 18.833 2.191 18.775 2.191 18.521V.466C2.191 .212 1.989 0 1.733 0Z" fill="#ffffff"/>
<path transform="matrix(1,0,0,-1,896.7042,178.9447)" d="M0 0-1.693-1.169C-1.906-1.307-2.194-1.243-2.329-1.036-2.329-1.036-2.942-.133-3.307 .203-4.071 .906-5.017 1.252-6.155 1.252-7.369 1.252-8.338 .851-9.075 .036-9.756-.713-10.086-1.57-10.086-2.55-10.086-3.619-9.587-4.501-8.605-5.204-8.03-5.594-7.413-5.953-6.73-6.242L-4.893-7.09C-4.672-7.189-4.291-7.378-4.071-7.514-4.071-7.514-1.198-9.11-.406-10.112 .452-11.213 .891-12.542 .891-14.068 .891-16.366 .06-18.263-1.599-19.753-2.998-21.014-4.679-21.673-6.647-21.673-9.132-21.673-11.095-20.67-12.546-18.698-13.168-17.813-13.647-16.677-13.947-15.293L-11.825-14.693C-11.582-14.615-11.326-14.762-11.261-15.003-11.261-15.003-10.832-16.521-10.426-17.103-10.006-17.702-9.474-18.194-8.796-18.519-8.097-18.898-7.333-19.087-6.545-19.087-5.187-19.087-4.024-18.584-3.095-17.593-2.227-16.658-1.782-15.528-1.782-14.223-1.782-12.751-2.441-11.571-3.746-10.736-4.354-10.32-5.75-9.62-7.955-8.592-9.709-7.779-10.936-6.888-11.642-5.964-12.386-4.959-12.756-3.822-12.756-2.507-12.756-.446-11.976 1.207-10.395 2.423-9.151 3.369-7.708 3.85-6.106 3.85-3.447 3.85-1.401 2.567 0 0" fill="#ffffff"/>
<path transform="matrix(1,0,0,-1,0,264)" d="M898.055 106.889H130.60999V108.691H898.055Z" fill="#ffffff"/>
</g>
</svg>
